<svg version="1.1" id="Layer_1" xmlns="http://www.w3.org/2000/svg" xmlns:xlink="http://www.w3.org/1999/xlink" x="0" y="0" viewBox="0 0 83.1 50.5" xml:space="preserve"><defs><path id="SVGID_1_" d="M0 0h83.1v50.5H0z"/></defs><clipPath id="SVGID_2_"><use xlink:href="#SVGID_1_" overflow="visible"/></clipPath><path d="M1.9 45.4h2.5c1.7 0 2.7-.7 2.7-2.2 0-1.5-1-2.2-2.7-2.2H1.9v4.4zm2.5-6.1c2.8 0 4.4 1.4 4.4 3.8 0 2.5-1.6 4-4.4 4H1.9v3.4H0V39.3h4.4zm10.5 6.1c1.7 0 2.7-.7 2.7-2.2 0-1.5-1-2.2-2.7-2.2h-2.6v4.4h2.6zm.5 1.7h-3.1v3.4h-1.9V39.3h4.5c2.8 0 4.5 1.4 4.5 3.8 0 1.8-.8 3-2.3 3.6l2.5 3.7h-2.1l-2.1-3.3zm8-6.1v3h5.5v1.7h-5.5v3.1h6.3v1.7h-8.2V39.3h8V41zm17.4 0l-1.1 1.4c-.8-.9-2-1.4-3.1-1.4-2.2 0-4 1.7-4 3.9s1.7 3.9 4 3.9c1.1 0 2.3-.5 3.1-1.3l1.1 1.2c-1.1 1.1-2.7 1.8-4.3 1.8-3.3 0-5.8-2.5-5.8-5.7s2.6-5.6 5.9-5.6c1.6.1 3.1.7 4.2 1.8m1.6-1.7h1.9v11.1h-1.9zm12 1.1l-.7 1.6c-1.2-.7-2.4-1-3.3-1-1.1 0-1.8.4-1.8 1.2 0 2.4 6 1.1 6 5.1 0 2-1.7 3.2-4.2 3.2-1.7 0-3.4-.7-4.5-1.8l.8-1.6c1.1 1 2.6 1.6 3.8 1.6 1.3 0 2.1-.5 2.1-1.4 0-2.5-6-1.1-6-5.1 0-1.9 1.6-3.1 4.1-3.1 1.3.2 2.7.6 3.7 1.3m2.1-1.1h1.9v11.1h-1.9zm5.4 5.6c0 2.2 1.8 4 4 4s4-1.7 4-4-1.8-3.9-4-3.9-4 1.7-4 3.9m9.9 0c0 3.2-2.6 5.6-5.9 5.6-3.3 0-5.9-2.5-5.9-5.6 0-3.2 2.6-5.6 5.9-5.6 3.3 0 5.9 2.4 5.9 5.6m9.5 5.6l-5.9-8v8h-1.9V39.3h1.8l6 8v-8h1.8v11.2z" clip-path="url(#SVGID_2_)" fill="#242058"/><path d="M52.1 19.2c0-5.1-3.8-9.4-8.8-10.1-.1.9-.1 1.5-.1 1.5-.1 2.6-.1 5.2-.2 7.8 0 .5 0 .9.1 1.4.3 2.4 1.5 4.4 3.2 6.2.5.5 1 1 1.5 1.4 2.6-1.8 4.3-4.8 4.3-8.2M57.6 8c-1.6-2.2-3.1-4.2-5.2-5.9-.9-.7-1.8-1.4-2.9-1.8-1.9-.7-3.5-.2-4.4 1.6-.3.5-.5 1-.7 1.5 7.6 1.3 13.4 7.9 13.4 15.8 0 4.5-1.9 8.5-4.9 11.4 1.6.6 3.2 1.1 4.9.9.9-.1 1.6-.5 2.3-1.2 1-1 1.3-3.5 1.3-6.7.2-4.9-.8-11.4-3.8-15.6M44 4.8l-.3 1.5c-.1.4-.2.7-.2 1.1 5.7.8 10.2 5.8 10.2 11.7 0 3.8-1.8 7.1-4.5 9.3.8.6 1.6 1 2.4 1.5 3-2.7 4.8-6.5 4.8-10.7C56.3 12 51 6 44 4.8" clip-path="url(#SVGID_2_)" fill="#30bcb0"/><path d="M39.9 10.5V9c-5 .8-8.8 5-8.8 10.1 0 3.4 1.7 6.4 4.2 8.3.5-.5 1-.9 1.5-1.4 1.6-1.8 2.9-3.8 3.2-6.2.1-.5.1-.9.1-1.4-.1-2.6-.1-5.2-.2-7.9m-1.3-7.1c-.2-.5-.4-1-.7-1.5C37 .1 35.3-.4 33.5.3c-1.1.4-2 1.1-2.9 1.8C28.5 3.9 27 5.8 25.4 8c-3 4.2-3.9 10.7-3.9 15.6 0 3.2.3 5.8 1.3 6.7.7.7 1.4 1.1 2.3 1.2 1.7.2 3.3-.3 4.9-.9-3-2.9-4.9-7-4.9-11.4.2-7.9 5.9-14.5 13.5-15.8m-9.1 15.8c0-5.9 4.4-10.8 10.2-11.7-.1-.4-.1-.8-.2-1.1l-.3-1.5C32.2 6 26.8 12 26.8 19.2c0 4.3 1.9 8.1 4.8 10.7.9-.4 1.7-.9 2.4-1.5-2.7-2.1-4.5-5.5-4.5-9.2" clip-path="url(#SVGID_2_)" fill="#eeaf12"/></svg>