<?xml version="1.0" encoding="utf-8"?>
<!-- Generator: Adobe Illustrator 22.1.0, SVG Export Plug-In . SVG Version: 6.00 Build 0)  -->
<svg version="1.1" id="Layer_1" xmlns="http://www.w3.org/2000/svg" xmlns:xlink="http://www.w3.org/1999/xlink" x="0px" y="0px"
	 viewBox="0 0 84.8 66.4" style="enable-background:new 0 0 84.8 66.4;" xml:space="preserve">
<style type="text/css">
	.st0{fill:#24195D;}
	.st1{clip-path:url(#SVGID_2_);fill:#24195D;}
	.st2{clip-path:url(#SVGID_2_);fill:#991636;}
</style>
<path class="st0" d="M5.9,2.4L7.6,7H4.3L5.9,2.4z M4.5,0.2L0.4,10.8H3L3.7,9h4.6l0.7,1.8h2.6L7.4,0.2H4.5z"/>
<g>
	<defs>
		<rect id="SVGID_1_" y="0" width="84.8" height="66.4"/>
	</defs>
	<clipPath id="SVGID_2_">
		<use xlink:href="#SVGID_1_"  style="overflow:visible;"/>
	</clipPath>
	<path class="st1" d="M15.2,9.3l1.2-1.8C17.2,8.3,18.4,9,19.8,9c1.3,0,1.9-0.6,1.9-1.2c0-1.9-6.1-0.6-6.1-4.6c0-1.8,1.5-3.2,4-3.2
		c1.7,0,3.1,0.5,4.1,1.5l-1.3,1.7c-0.9-0.8-2-1.2-3.1-1.2c-1,0-1.5,0.4-1.5,1.1c0,1.7,6.1,0.5,6.1,4.5c0,1.9-1.4,3.4-4.3,3.4
		C17.7,11,16.2,10.3,15.2,9.3"/>
	<polygon class="st1" points="31.3,10.8 31.3,2.2 28.2,2.2 28.2,0.2 36.7,0.2 36.7,2.2 33.6,2.2 33.6,10.8 	"/>
	<polygon class="st1" points="49,10.8 49,6.3 44,6.3 44,10.8 41.7,10.8 41.7,0.2 44,0.2 44,4.3 49,4.3 49,0.2 51.3,0.2 51.3,10.8 	
		"/>
	<polygon class="st1" points="66.2,10.8 66.2,3.1 63.2,10.8 62.3,10.8 59.3,3.1 59.3,10.8 57,10.8 57,0.2 60.2,0.2 62.8,6.8 
		65.3,0.2 68.5,0.2 68.5,10.8 	"/>
	<path class="st1" d="M81.6,10.8L80.9,9h-4.6l-0.7,1.8h-2.6l4.1-10.6H80l4.1,10.6H81.6z M78.6,2.4L77,7h3.3L78.6,2.4z"/>
	<polygon class="st2" points="0.2,39.5 0.2,35.7 10.6,21.6 0.2,21.6 0.2,17.4 16.8,17.4 16.8,21.2 6.3,35.4 17,35.4 17,39.5 	"/>
	<polygon class="st2" points="20.6,39.5 20.6,17.4 36.2,17.4 36.2,21.6 25.3,21.6 25.3,26.2 36,26.2 36,30.4 25.3,30.4 25.3,35.4 
		36.2,35.4 36.2,39.5 	"/>
	<path class="st2" d="M52.4,39.5l-4.3-7.9h-3.4v7.9h-4.7V17.4h10.3c4.6,0,7.5,3,7.5,7.1c0,3.9-2.5,6-4.9,6.6l5,8.4H52.4z M52.9,24.5
		c0-1.8-1.4-3-3.3-3h-5v6h5C51.4,27.5,52.9,26.4,52.9,24.5"/>
	<polygon class="st1" points="0.3,66.3 0.3,61.5 3.5,61.5 3.5,62 0.9,62 0.9,63.6 3.4,63.6 3.4,64.1 0.9,64.1 0.9,66.3 	"/>
	<path class="st1" d="M4.6,63.9c0-1.4,1-2.5,2.4-2.5c1.4,0,2.4,1.1,2.4,2.5s-1,2.5-2.4,2.5C5.6,66.4,4.6,65.3,4.6,63.9 M8.8,63.9
		c0-1.1-0.7-2-1.8-2c-1.1,0-1.8,0.8-1.8,2c0,1.1,0.7,2,1.8,2C8.1,65.8,8.8,65,8.8,63.9"/>
	<path class="st1" d="M13.6,66.3l-1.2-1.9h-1v1.9h-0.6v-4.8h1.9c0.9,0,1.5,0.6,1.5,1.5c0,0.9-0.6,1.3-1.3,1.4l1.3,2H13.6z
		 M13.7,62.9c0-0.5-0.4-0.9-1-0.9h-1.3v1.8h1.3C13.3,63.9,13.7,63.5,13.7,62.9"/>
	<path class="st1" d="M21.6,66.3l-0.4-1.1h-2.4l-0.4,1.1h-0.7l1.9-4.8h0.7l1.9,4.8H21.6z M19.9,62.1l-1,2.6h2L19.9,62.1z"/>
	<path class="st1" d="M23,65.6l0.4-0.5c0.3,0.4,0.8,0.7,1.5,0.7c0.9,0,1.1-0.5,1.1-0.8c0-1.2-2.9-0.5-2.9-2.3c0-0.8,0.7-1.3,1.7-1.3
		c0.7,0,1.3,0.3,1.7,0.7l-0.4,0.4c-0.4-0.4-0.9-0.6-1.4-0.6c-0.6,0-1,0.3-1,0.8c0,1.1,2.9,0.5,2.9,2.3c0,0.7-0.5,1.4-1.8,1.4
		C24,66.4,23.4,66.1,23,65.6"/>
	<polygon class="st1" points="29.2,66.3 29.2,62 27.6,62 27.6,61.5 31.3,61.5 31.3,62 29.8,62 29.8,66.3 	"/>
	<polygon class="st1" points="36,66.3 36,64.1 33.2,64.1 33.2,66.3 32.6,66.3 32.6,61.5 33.2,61.5 33.2,63.6 36,63.6 36,61.5 
		36.6,61.5 36.6,66.3 	"/>
	<polygon class="st1" points="42.4,66.3 42.4,62.2 40.7,66.3 40.5,66.3 38.9,62.2 38.9,66.3 38.3,66.3 38.3,61.5 39.1,61.5 
		40.6,65.2 42.1,61.5 43,61.5 43,66.3 	"/>
	<path class="st1" d="M48,66.3l-0.4-1.1h-2.4l-0.4,1.1h-0.7l1.9-4.8h0.7l1.9,4.8H48z M46.4,62.1l-1,2.6h2L46.4,62.1z"/>
	<path class="st1" d="M55.7,66.3l-0.4-1.1h-2.4l-0.4,1.1h-0.7l1.9-4.8h0.7l1.9,4.8H55.7z M54.1,62.1l-1,2.6h2L54.1,62.1z"/>
	<polygon class="st1" points="58.2,66.3 58.2,62 56.7,62 56.7,61.5 60.3,61.5 60.3,62 58.8,62 58.8,66.3 	"/>
	<polygon class="st1" points="62.8,66.3 62.8,62 61.3,62 61.3,61.5 65,61.5 65,62 63.4,62 63.4,66.3 	"/>
	<path class="st1" d="M69.2,66.3l-0.4-1.1h-2.4L66,66.3h-0.7l1.9-4.8H68l1.9,4.8H69.2z M67.6,62.1l-1,2.6h2L67.6,62.1z"/>
	<path class="st1" d="M70.6,63.9c0-1.5,1.1-2.5,2.5-2.5c0.9,0,1.4,0.4,1.8,1l-0.5,0.3c-0.3-0.4-0.8-0.7-1.3-0.7
		c-1.1,0-1.9,0.8-1.9,2c0,1.1,0.8,2,1.9,2c0.5,0,1.1-0.3,1.3-0.7l0.5,0.3c-0.4,0.6-1,1-1.8,1C71.7,66.4,70.6,65.4,70.6,63.9"/>
	<polygon class="st1" points="79.1,66.3 77.3,64.1 76.8,64.7 76.8,66.3 76.2,66.3 76.2,61.5 76.8,61.5 76.8,64 78.9,61.5 79.7,61.5 
		77.6,63.8 79.8,66.3 	"/>
	<path class="st1" d="M80.7,65.6l0.4-0.5c0.3,0.4,0.8,0.7,1.5,0.7c0.9,0,1.1-0.5,1.1-0.8c0-1.2-2.9-0.5-2.9-2.3
		c0-0.8,0.7-1.3,1.7-1.3c0.7,0,1.3,0.3,1.7,0.7l-0.4,0.4c-0.4-0.4-0.9-0.6-1.4-0.6c-0.6,0-1,0.3-1,0.8c0,1.1,2.9,0.5,2.9,2.3
		c0,0.7-0.5,1.4-1.8,1.4C81.7,66.4,81.1,66.1,80.7,65.6"/>
	<path class="st2" d="M70.3,45.5c0.1-0.1-0.2-0.2,0-0.3c-0.2,0-0.4,0.1-0.5,0.2C69.9,45.3,70.1,45.4,70.3,45.5"/>
	<path class="st2" d="M52.3,45.4c-0.2-0.2-0.4-0.4-0.4-0.2l0.1,0.2C52.1,45.3,52.2,45.4,52.3,45.4"/>
	<path class="st2" d="M78.9,46.2c0.1,0,0.1-0.2,0.1-0.2C78.9,46.1,79,46.3,78.9,46.2"/>
	<polygon class="st2" points="77,46.6 77,46.5 76.7,46.7 	"/>
	<path class="st2" d="M75.2,46.5c0.2,0.3,0.7,0,1,0.1l0.1,0.1l0.2-0.3C76,46.4,75.5,46.6,75.2,46.5"/>
	<path class="st2" d="M74.3,45.7c0.1,0.1-0.2,0.1,0.2,0.1c0,0,0,0,0,0C74.4,45.7,74.4,45.7,74.3,45.7"/>
	<path class="st2" d="M74.5,45.7C74.6,45.7,74.3,45.6,74.5,45.7"/>
	<path class="st2" d="M73.6,45.8l0.3-0.1c-0.1-0.1-0.3-0.1-0.2-0.2C73.4,45.6,73.4,45.6,73.6,45.8"/>
	<path class="st2" d="M73.3,46l0.1,0C73.4,45.9,73.4,45.9,73.3,46"/>
	<path class="st2" d="M73.7,45.9L73.5,46c0,0.1,0,0.2,0.1,0C73.6,46,73.6,45.9,73.7,45.9"/>
	<path class="st2" d="M73.9,45.9c0.1,0.1,0.3,0.1,0.1,0.2C74.4,46.1,74.4,45.9,73.9,45.9"/>
	<path class="st2" d="M75.1,46.8l0.2,0.1l0.2-0.1C75.4,46.9,75.1,46.7,75.1,46.8"/>
	<path class="st2" d="M72,45.5c0,0.1,0.1,0.2,0.1,0.3l0.2-0.1C72.2,45.7,72,45.6,72,45.5"/>
	<path class="st2" d="M72.1,45.8l-0.3,0.1C72.1,45.9,72.1,45.9,72.1,45.8"/>
	<polygon class="st2" points="73.3,46.4 73.7,46.1 73.2,46.4 	"/>
	<polygon class="st2" points="71,45.5 71.1,45.3 70.8,45.6 	"/>
	<path class="st2" d="M69.5,45.5c0.1,0,0.2-0.1,0.3-0.1C69.6,45.4,69.6,45.5,69.5,45.5"/>
	<path class="st2" d="M71.4,45.9c0,0-0.1-0.2-0.2-0.2l0.1,0.2C71.3,45.9,71.3,45.9,71.4,45.9"/>
	<path class="st2" d="M71.3,45.9L71.3,45.9c-0.1,0-0.2,0-0.2,0C71,45.8,71.1,45.9,71.3,45.9"/>
	<path class="st2" d="M71.4,45.9C71.4,45.9,71.4,45.9,71.4,45.9C71.4,45.9,71.4,45.9,71.4,45.9"/>
	<path class="st2" d="M72.5,46.2c-0.2,0.1-0.5,0.2-0.2,0.4C72.5,46.4,72.3,46.3,72.5,46.2"/>
	<path class="st2" d="M71.5,46.1l0.3,0.1c0-0.1-0.1-0.1,0-0.2L71.5,46.1z"/>
	<polygon class="st2" points="71.4,46.2 71.5,46.1 71.4,46.1 	"/>
	<path class="st2" d="M70,45.7c-0.1,0.1-0.3,0.1-0.4,0.1c0.2,0,0.3,0.1,0.5,0.1C70.1,45.9,70.2,45.7,70,45.7"/>
	<path class="st2" d="M70.6,45.8C70.6,45.8,70.6,45.8,70.6,45.8C70.6,45.9,70.6,45.9,70.6,45.8"/>
	<polygon class="st2" points="68,45.8 68,45.8 68,45.8 	"/>
	<path class="st2" d="M70.1,46c0.1,0,0.2,0,0.3-0.1C70.3,45.9,70.2,45.9,70.1,46C70,45.9,70,46,70.1,46"/>
	<path class="st2" d="M69,45.6c0.1,0,0.1,0.1,0.2,0.1C69.2,45.7,69.1,45.6,69,45.6"/>
	<path class="st2" d="M70.5,45.8C70.5,45.8,70.5,45.8,70.5,45.8C70.5,45.7,70.5,45.7,70.5,45.8"/>
	<path class="st2" d="M70.5,45.8c-0.1,0-0.1,0.1-0.2,0.1C70.4,45.9,70.5,45.9,70.5,45.8C70.6,45.8,70.5,45.8,70.5,45.8"/>
	<path class="st2" d="M67.5,47.1c0-0.2,0.4-0.3,0.6-0.1c0.3-0.1,0.1-0.7-0.1-1.1c0,0.1,0,0.2-0.3,0.3c0.1,0.1,0.6,0.3,0.4,0.4
		c-0.4,0.1-0.3-0.1-0.5-0.2c0.2,0.2-0.5,0.3-0.4,0.7l0.3-0.1C67.5,46.9,67.4,47,67.5,47.1"/>
	<path class="st2" d="M68.6,45.9l0.1,0c-0.1,0-0.2-0.1-0.4-0.3c-0.2,0.1-0.2,0.2-0.3,0.2L68.6,45.9L68.6,45.9z"/>
	<path class="st2" d="M69.2,45.9c-0.1,0.2-0.4,0.3-0.2,0.5c0.3,0,0.3-0.2,0.5-0.2C68.9,46.1,69.6,46,69.2,45.9c0.1,0,0.2,0,0.3,0
		c-0.1,0-0.2-0.1-0.3-0.1c0,0,0,0,0,0h0l0,0C69.3,45.8,69.3,45.8,69.2,45.9C69.3,45.8,69.3,45.8,69.2,45.9
		C69.3,45.8,69.3,45.8,69.2,45.9C69.1,45.8,69.2,45.8,69.2,45.9c0-0.1,0-0.1,0-0.1l0,0l-0.6,0.1C68.8,45.9,69,45.9,69.2,45.9"/>
	<path class="st2" d="M72,47C72,47,72,46.9,72,47C72,47,72,47,72,47"/>
	<path class="st2" d="M71.8,46.8c0,0,0.1-0.1,0.2-0.1c0.1,0.1,0,0.1,0,0.2c0.1-0.1,0.3-0.1,0-0.2l0,0c-0.2-0.1-0.5-0.3-0.5-0.4
		C71.6,46.5,71.7,46.7,71.8,46.8"/>
	<path class="st2" d="M70.5,46.4L70,46.5l0.2,0.2l0-0.1C70.5,46.6,70.5,46.5,70.5,46.4"/>
	<polygon class="st2" points="68,45.7 68,45.5 67.7,45.8 	"/>
	<polygon class="st2" points="67.3,45.7 67.4,45.5 67.2,45.6 	"/>
	<path class="st2" d="M32.8,47.7l-0.1,0.1C32.7,47.8,32.8,47.7,32.8,47.7"/>
	<path class="st2" d="M33.8,47.7L33.8,47.7C33.8,47.7,33.8,47.7,33.8,47.7"/>
	<path class="st2" d="M42,46.6C42,46.6,42,46.6,42,46.6c0.1,0,0.2-0.1,0.2-0.1C42.1,46.5,42.1,46.6,42,46.6"/>
	<path class="st2" d="M41.9,47.4l-0.3-0.1C41.6,47.4,41.7,47.4,41.9,47.4"/>
	<path class="st2" d="M27.3,48l-0.2,0.2C27.4,48.2,27.3,48.1,27.3,48"/>
	<path class="st2" d="M61.1,45.6c-0.2-0.1-0.3-0.1-0.4-0.1C60.8,45.6,61,45.8,61.1,45.6"/>
	<path class="st2" d="M33.2,45.6c-0.1,0-0.1,0.1-0.1,0.1C33.1,45.6,33.2,45.6,33.2,45.6"/>
	<path class="st2" d="M60.1,45.5C60.2,45.5,60.2,45.5,60.1,45.5c0.2,0,0.3,0,0.5,0C60.5,45.4,60.3,45.3,60.1,45.5"/>
	<path class="st2" d="M7.5,48.3C7.5,48.3,7.5,48.3,7.5,48.3C7.5,48.3,7.5,48.3,7.5,48.3"/>
	<path class="st2" d="M1.7,46.4c0.1,0,0.1,0,0.2,0C1.9,46.4,1.8,46.4,1.7,46.4"/>
	<path class="st2" d="M64.9,45.5C65,45.5,64.9,45.5,64.9,45.5"/>
	<path class="st2" d="M65.5,46.3C65.5,46.4,65.4,46.4,65.5,46.3C65.4,46.4,65.5,46.4,65.5,46.3"/>
	<path class="st2" d="M58.8,46.7C58.8,46.7,58.8,46.7,58.8,46.7C58.8,46.7,58.8,46.7,58.8,46.7"/>
	<path class="st2" d="M65.1,45.6c0,0-0.1,0-0.2-0.1C64.9,45.6,65,45.6,65.1,45.6"/>
	<path class="st2" d="M65,45.5c0,0,0.1,0,0.1,0C65.2,45.5,65.2,45.5,65,45.5"/>
	<path class="st2" d="M64.7,45.5c0.1,0,0.1,0,0.2,0c0,0,0,0,0,0C64.8,45.5,64.8,45.5,64.7,45.5"/>
	<path class="st2" d="M18.1,47.5C18.1,47.5,18.1,47.5,18.1,47.5C18,47.5,18,47.5,18.1,47.5"/>
	<path class="st2" d="M48.9,47.5C48.9,47.5,48.9,47.5,48.9,47.5C48.9,47.5,48.9,47.5,48.9,47.5L48.9,47.5z"/>
	<path class="st2" d="M48.4,47.7c0.2-0.3,0.3-0.2,0.5-0.2l-0.2-0.6L48.4,47.7z"/>
	<path class="st2" d="M30.4,47.8l0.3,0.2c-0.4,0.3-0.7,0.2-0.4,0.5c0-0.6,1.3-0.1,1.3-0.7l0.2,0.1c-0.1,0-0.1,0-0.1,0
		c0.4,0.3,0.3-0.5,0.8-0.4c0.2,0,0.3,0.1,0.2,0.2l0.4-0.2c0.1,0,0.1,0.1,0,0.1l0.6-0.1l0,0c0.1-0.1,0.3-0.3,0.4-0.3
		c0.2,0.1-0.1,0.1,0,0.1l0.4-0.2c0.1,0.2-0.1,0.3-0.4,0.3c0.3,0.6,0.3-0.2,1,0.2l-0.3,0.1c0.2,0.4,0.5,0.2,0.9,0.5
		c-0.1-0.1-0.8-0.6-0.4-0.7c0.1,0,0.3,0.1,0.5-0.1c0,0.2,0.2,0.2,0.5,0.2l0,0.3c0.3-0.1,0.2-0.2,0.4-0.4c0.3,0,0.4,0.3,0.4,0.5
		c0.5,0-0.3-0.4,0.2-0.4c0.4,0.1,0.7,0,1.2-0.2c0.3,0.1,0,0.2,0.1,0.3l0.3-0.2c0.1,0,0,0.1,0,0.1c0.2-0.1,0-0.3,0.3-0.4
		c0.1-0.3,0.7,0.5,1.1,0.1c0.1,0.1,0,0.2,0,0.3c0.6-0.2,0.5-0.2,1-0.5l0.4,0.2c-0.3-0.2,0.1-0.5,0.4-0.7c-0.1-0.1-0.2-0.2-0.3-0.2
		l0.5-0.2c0.1,0.1,0,0.2-0.1,0.3c0,0,0.1,0,0.1-0.1c0.2,0.1,0.1,0.3,0,0.5c-0.1-0.1-0.1-0.1-0.2-0.2c-0.1,0.2-0.2,0.4-0.2,0.6
		c0,0,0.1-0.1,0.2-0.1c0,0-0.1,0.1,0,0.1c0,0,0.1,0,0.2-0.1l0.1,0.3l0-0.1l0.7,0.2c0.5-0.3,0.9-0.8,1.7-1c-0.2,0.2,0,0.4-0.1,0.7
		c-0.2-0.3-0.6,0.1-1,0.1c0.2,0,0.2,0.2,0.1,0.2l0.7-0.3c0,0.2,0.2,0.2,0.3,0.3c-0.1-0.5,0.5-0.3,0.8-0.5c0,0.2-0.1,0.3-0.4,0.3
		c0.4,0.4,0.5-0.6,0.9-0.3c-0.1,0-0.1,0-0.2,0.1c0.2-0.1,0.7,0,0.6,0.1l-0.1,0c0.6,0.1,1.8,0,1.8-0.4c0,0.1-0.1,0.5-0.1,0.6l1-1.3
		c-0.1,0.3,0.3,1.2-0.2,1.4c0.1,0,0.3,0.1,0.6,0c-0.1-0.1-0.2-0.5-0.1-0.5c0.3,0.4,0.2,0.2,0.7,0.5c-0.1-0.1,0-0.6,0.2-0.6
		c0,0.1,0,0.5-0.1,0.6l0.6-0.5c-0.1,0.1,0,0.4,0.1,0.6c-0.1-0.1,0.5,0,0.6,0l-0.2-0.1c0.6,0.1,0.6-0.7,1.2-0.7
		c-0.1,0.1-0.2,0.7,0.1,0.7c0.1-0.3,0.6-1.3,1.2-1.5l0.1,0.2l0.4-0.2c-0.3,0.4-1,1.2-1.4,1.6c0.2,0.1,0.1,0.2,0.4,0.2
		c0.1,0.1-0.2,0.2-0.3,0.2l0.8,0.1c0-0.3,0.6-0.3,0.6-0.6l-0.9,0.3c0-0.3,0.5-0.9,1.1-0.8c0.1,0.1-0.1,0.6-0.1,0.7
		c0.1-0.1,0.5-0.2,0.6-0.1L55,47.6c0.3,0.1,0.5-0.4,0.9-0.1c0.1,0,0.4,0.4,0.4,0.2c-0.2-0.4-0.2-1.5-0.1-1.7c0,0,0.7,0.4,0.8,0.5
		c0.2,0.3-0.3,0.7-0.2,0.9c0-0.1,0.1-0.2,0.2-0.2c0.1,0.1-0.1,0.3,0.2,0.2c0.1-0.3,0.6,0,0.1-0.3c0.3-0.1,0.3,0.1,0.7,0.1
		c-0.1-0.2,0.3-0.7,0.6-0.8c0,0.1,0,0.2,0.1,0.2c0.6,0,0.9,0.2,1.5,0.2c0.1,0.1,0.3,0.2,0.2,0.3c0.1-0.1,0.2-0.2,0.3-0.2
		c0.3,0.3-0.4,0-0.1,0.4c0-0.2,0.5-0.2,0.7-0.4c-0.1-0.3-0.6-0.1-0.8,0c0-0.4,0.5-0.8,1-1c0.5-0.1,0.2,0.3,0.3,0.2
		c0.9,0.1,0.8-0.7,1.5-0.4c0.3,0.3,0,0.5,0.1,0.7c-0.4,0.1-0.6-0.2-0.8-0.2l0.3,0.1c-0.1,0.1-0.4,0.1-0.5,0.1
		c0.2,0.2,1.5,0.1,2.2,0.3c0.1-0.1,0.3-0.2,0.2-0.3l-0.2,0c-0.2-0.2,0.4-0.3,0.1-0.4c0.3-0.1,0.6-0.4,1-0.2l0.1,0.3
		c0-0.1-0.3-0.2-0.4-0.1c0.2-0.1,0.6,0.4,0.8,0L66,46.2c0.3-0.1,0.7-0.4,1-0.3c-0.2-0.3-0.1,0-0.3-0.3c0.2,0.4-0.9,0-0.6,0.4
		c-0.3-0.4-0.5-0.2-0.8-0.5c0,0.1,0.1,0.2-0.2,0.1c0,0,0,0.1-0.1,0.1c0,0,0,0,0,0l0,0c0,0,0,0,0,0c0.1,0,0.1,0.1,0.2,0.1
		c-0.2,0.2-0.6,0.2-0.8,0.3c-0.2,0,0.1-0.1,0-0.2L64.2,46c0-0.2-0.5-0.4,0-0.5l-0.4,0c-0.2-0.1-0.5-0.2-0.7-0.1
		c-0.2,0-0.5,0.2-0.3,0.1l-0.6,0.1l0-0.1c-0.6,0-1.2,0.3-1.9-0.1c-0.2,0-0.4,0.1-0.7,0l-0.1-0.2c-0.3,0.1-0.8-0.2-0.9,0
		c-0.3-0.5-1.2-0.1-1.7-0.2l0,0.2c-0.3,0-0.6,0-1,0.1l0,0.2c-0.3,0.2-0.8-0.2-1.4-0.1c0-0.1,0.2-0.1,0.3,0c-0.6-0.5-1.3,0.3-1.9,0
		c-0.1,0.1-0.2,0-0.3,0c0,0,0,0,0,0c0,0,0,0-0.1,0c-0.1,0-0.1-0.1-0.2-0.1c0.1,0.1,0.1,0.1,0.2,0.1c-0.1,0-0.3,0-0.4,0.1L52,45.4
		c0,0,0,0,0,0c-0.2-0.1-0.1,0.1,0,0.3c-0.1,0-0.2,0.1-0.2,0.1c-0.1-0.4-0.4,0.1-0.6-0.3c-0.1,0.2-0.8,0.1-0.9,0.5
		c0-0.1-0.1-0.1,0-0.1c-0.2,0-0.4-0.1-0.5,0l-0.1-0.3l-0.4,0.4c-0.2-0.2-0.3-0.3-0.1-0.5c-0.6,0.3-0.5,0.1-1,0.5l0-0.2
		c-0.2,0-0.5,0.3-0.6,0.1c-0.4-0.4-1.9-0.1-2.9-0.4c0.2,0.5-0.5-0.2-0.5,0.2c-0.1-0.1-0.2-0.2,0-0.3c-0.5,0.1-0.8-0.2-1.1,0.2
		c-0.1-0.1,0.1-0.2,0.1-0.3c0,0-0.2,0.1-0.2,0c-0.1-0.1,0.1-0.1,0.2-0.2c-0.5,0-0.6,0.4-0.6,0.8c-0.3-0.2-0.4-0.2-0.6,0.1
		c-0.1-0.1-0.2-0.2,0.1-0.3c-0.2,0-1.1-0.2-1.1,0.1c-0.1-0.1-0.3,0-0.3,0c-0.4,0-0.4,0-0.9,0l0.1,0c-0.2,0.4-0.3,0.1-0.7,0.1l0,0
		c-0.7-0.3-0.3,0.1-1.1-0.2l0,0.2c-0.1,0.5-0.7-0.3-1.1-0.1l0.2,0.1c-0.2,0.2-0.7-0.7-0.9-0.7c-0.1,0,0.1-0.1,0.2-0.1
		c-0.6-0.3-0.1,0.3-0.5,0.4c-0.1-0.2,0.1-0.4-0.2-0.4c-0.2-0.1-0.9,0.5-1.3,0.2c0.1,0.1,0.2,0.2,0,0.3c-0.3,0-0.9-0.5-1.2-0.1
		c0,0-0.1-0.1-0.1-0.1c-0.2,0.1-0.8,0.2-1,0.4c-0.2-0.8-1.5,0.4-1.5-0.3l-0.8,0l0-0.1c-0.5,0-0.7,0.1-0.8,0.3c-0.1,0,0-0.1,0-0.2
		c-0.7-0.1-0.8-0.1-1.4,0.3l-0.1-0.2c-0.2,0.1-1-0.3-1.7-0.1c0,0,0-0.1,0.1-0.1C25.1,46,24,45.1,23.7,46l-0.5,0.2
		c0.7,0.1-0.1,0.4,0.2,0.5c-0.3,0.1-0.7-0.2-0.4-0.3l0.1,0c0.1-0.4-0.8-0.1-0.8-0.4c-1.3,0-2.6-0.2-3.9-0.2l0.1,0.3l-0.4,0
		c-0.1-0.1-0.2-0.3,0.1-0.3c-0.2-0.2-0.5,0.2-0.5,0.2c-0.6-0.1,0.2-0.4,0-0.4l-0.3,0l0.1,0c-0.2,0.1-0.2,0.3-0.6,0.3
		c-0.2-0.1-0.1-0.2-0.2-0.2c0,0,0,0-0.1,0l-0.5,0l0.2,0.3c-0.2,0.1-0.5,0-0.3,0.3c-0.4-0.5-2-0.1-2.3-0.3c-0.3,0.2-0.7,0.2-1.1,0.2
		c0.1,0.1,0.2,0.4-0.2,0.3c0.1-0.6-0.7-0.3-1-0.7c0.3,0.3-1,0.1-0.6,0.5c-0.3,0,0-0.2-0.3-0.4c-0.7,0.3-1.6-0.1-2.4,0
		c0,0.1,0.1,0.2,0,0.3l-0.5-0.4c-0.2,0-0.1,0.5-0.5,0.2c0,0.1,0.1,0.2,0,0.2c-1.7-0.3-3.5,0.4-5.3-0.3c0.2,0.2,0.1,0.2-0.1,0.2
		c0.1,0,0,0.2,0,0.3l-0.7-0.3c-0.1,0.3-0.8,0.1-0.8,0.3l0.2-0.1c-0.3,0.4,0.5,0.8,0.4,1.2c0.3-0.4,0.9,0.6,1.5,0
		c0.1,0.1-0.1,0.1,0,0.3C2.6,48,2.8,47.9,3.1,48l0,0C4,48,4.3,48.1,5.4,48.2L5.3,48c0.2,0,0.3,0.1,0.4,0.1c0.2-0.3-0.6,0-0.4-0.4
		c0.3,0.4,1.5,0,1.7,0.5c0.3,0-0.1-0.3,0.2-0.3l0.1,0.1l0.1-0.2c0.2,0,0.3,0.2,0.3,0.3c-0.1,0-0.1,0-0.2,0.1c0.3,0.2,0.8-0.1,0.9,0
		l-0.3-0.1c0.9-0.2,2,0,2.9-0.3l-0.1-0.1c0.7-0.2,0.5,0.1,1.3,0l0,0c0.1-0.1,0.3-0.2,0.5-0.2c-0.2,0.1,0.4,0.2,0.1,0.4
		c0.7-0.2,0.4-0.2,0.8-0.6l0.1,0.2c0.2-0.2,0.2-0.2,0.5-0.3c-0.3,0.2,0.2,0.3-0.1,0.5c0.8,0.4,1.1-0.4,1.5,0.1
		c0.3-0.5-0.7-0.2-0.5-0.4c-0.2-0.2,0.3-0.4,0.5-0.3c0.2,0,0.4,0.6,1.1,0.6c-0.1,0-0.1,0-0.1,0c0.2,0.1,0.5-0.2,0.7,0
		c0.2-0.3,0.4,0,0.4-0.4l-0.6,0.1c0.3-0.1,0.6-0.5,1.1-0.3c0,0.1-0.2,0.2-0.3,0.2c0.2,0.1,0.3-0.1,0.5,0c0,0.4-0.7,0.1-1,0.4
		c0.2,0.2,0.6-0.3,0.5,0.1c0.2-0.5,0.6,0.1,1-0.3l0,0.2c0.1,0,0.2-0.1,0.3-0.1L19.2,48c0.3-0.3,0.7,0.2,1,0.1
		c-0.7,0-0.2-0.3-0.5-0.4c0.8-0.3,0.5,0.6,1.4,0.4c-0.1,0-0.5-0.1-0.3-0.2c0.2,0,0.4,0.1,0.5,0.2c0.6-0.1-0.1-0.2,0.2-0.4
		c0.2,0.3,0.3-0.1,0.6-0.2l0,0.2c0.7,0.1,0.2-0.5,0.8-0.3l-0.3,0.3l0.3-0.1L22.9,48c0.4-0.2,0.5-0.1,0.8-0.1c-0.1-0.2,0-0.4,0.4-0.4
		c0.2,0.1-0.1,0.2,0.3,0.2c-0.1,0.1-0.2,0.3-0.4,0.1c0,0.1-0.1,0.1-0.1,0.2c0.2,0.2,0.6,0,0.7,0c-0.1,0-0.1,0-0.2,0l0.6-0.3
		c0.1,0.1,0,0.2-0.1,0.2c0.1,0,0.2-0.1,0.4-0.2c0,0.2,0,0.4-0.3,0.5l0.6-0.2c0,0.1,0.3,0.2,0.2,0.3c0.3,0.1,0.8-0.4,1.3-0.2
		c0,0,0.1-0.1,0.2-0.1c0.4,0,0.8,0.3,1.3,0l0.3,0.3c0.4-0.1-0.4-0.4,0.3-0.5c0.5-0.1,0.2,0.3,0.3,0.4c0.2-0.2,0.6-0.5,1.1-0.2
		C30.6,47.8,30.5,47.8,30.4,47.8"/>
	<path class="st2" d="M35.3,47.6c-0.1,0-0.3,0.2-0.4,0.1C35,47.4,35.1,47.5,35.3,47.6"/>
	<path class="st2" d="M42.7,47c-0.1,0.1-0.2,0-0.3,0C42.5,47,42.6,47,42.7,47"/>
	<path class="st2" d="M63.4,45.7C63.4,45.7,63.4,45.7,63.4,45.7C63.2,45.6,63.3,45.6,63.4,45.7"/>
	<path class="st2" d="M63.9,45.8C63.9,45.8,63.9,45.7,63.9,45.8c0,0-0.1,0-0.2-0.1C63.7,45.8,63.8,45.8,63.9,45.8"/>
	<path class="st2" d="M16.7,46L16.7,46C16.6,46.1,16.7,46,16.7,46"/>
	<path class="st2" d="M41.9,47.3c0,0,0-0.1,0-0.1C41.8,47.3,41.8,47.3,41.9,47.3"/>
	<path class="st2" d="M27.4,48C27.4,48,27.4,48,27.4,48C27.3,48,27.3,48,27.4,48L27.4,48z"/>
	<path class="st2" d="M57,47.6c-0.1,0-0.1-0.1-0.2-0.1C56.9,47.5,56.9,47.5,57,47.6"/>
	<path class="st2" d="M66.2,45.5l-0.3,0.1c0.1,0,0.2,0,0.3,0.1C66.2,45.5,66.1,45.5,66.2,45.5"/>
	<path class="st2" d="M68.6,46.9c0,0,0.1,0,0.1,0l0-0.1C68.6,46.8,68.4,46.9,68.6,46.9"/>
	<path class="st2" d="M66.5,46.2c0,0.2,0.2,0.1,0.4,0.1c0,0,0,0,0,0C66.9,46.1,66.7,46.1,66.5,46.2"/>
	<path class="st2" d="M66.9,46.3c0.1,0,0.1,0,0.2,0C67.1,46.2,67,46.3,66.9,46.3"/>
	<path class="st2" d="M64.4,45.7c0.1,0.1,0.1-0.2,0.1-0.2C64.7,45.3,63.9,45.8,64.4,45.7"/>
	<polygon class="st2" points="66.6,46.8 66.5,46.6 66.4,46.8 	"/>
	<path class="st2" d="M65.1,46.6l0.3,0.1c0,0,0-0.1,0.1-0.1C65.3,46.6,65.1,46.6,65.1,46.6"/>
	<path class="st2" d="M65.5,46.6c0.1,0,0.2,0,0.3,0C65.7,46.6,65.5,46.6,65.5,46.6"/>
	<polygon class="st2" points="66.2,46.9 66.1,46.9 65.9,46.8 	"/>
	<path class="st2" d="M61.7,46.5l-0.3,0.1c0,0.1,0.1,0.1,0.2,0.1C61.6,46.6,61.7,46.6,61.7,46.5"/>
	<path class="st2" d="M62.7,47.2c-0.1-0.1-0.1-0.1-0.1-0.2l0,0.3L62.7,47.2z"/>
	<path class="st2" d="M61.7,47.2c0,0.1-0.5,0.2-0.1,0.2C61.7,47.4,62,47.3,61.7,47.2"/>
	<polygon class="st2" points="56.5,46.8 56.6,46.8 56.6,46.3 	"/>
	<path class="st2" d="M52,47.8c0.4,0.1,0.1-0.3,0.5-0.1c0.1-0.1-0.3-0.1-0.2-0.2C52,47.6,51.9,47.5,52,47.8"/>
	<path class="st2" d="M52.2,47.5c0,0,0.1,0,0.1-0.1C52.3,47.4,52.2,47.5,52.2,47.5"/>
	<polygon class="st2" points="0.7,46.2 0.4,46.1 0.6,46.3 	"/>
	<path class="st2" d="M0.2,46.6l-0.1-0.3L0,46.6C0.1,46.5,0.2,46.5,0.2,46.6"/>
	<path class="st2" d="M36,48.2L36,48.2c0-0.2-0.1-0.2-0.2-0.2L36,48.2z"/>
	<polygon class="st2" points="32.5,48 32.5,48 32.4,47.8 	"/>
	<path class="st2" d="M29.5,48.4c0.1,0,0.3-0.1,0.4,0C29.6,48.4,29.5,48.1,29.5,48.4"/>
	<path class="st1" d="M73,17.1c0.1,0,0.1-0.3,0.1-0.3C72.9,16.8,73,17.1,73,17.1"/>
	<polygon class="st1" points="71.3,17.9 71.3,17.8 71.1,18.1 	"/>
	<path class="st1" d="M69.7,18.3c0.3,0.4,0.6-0.2,0.9-0.1l0.1,0.1l0-0.4C70.3,18,69.9,18.3,69.7,18.3"/>
	<path class="st1" d="M68.4,17.6c0.1,0.2-0.1,0.2,0.2,0c0,0,0,0-0.1,0C68.6,17.5,68.5,17.5,68.4,17.6"/>
	<path class="st1" d="M68.6,17.5C68.8,17.4,68.4,17.4,68.6,17.5"/>
	<path class="st1" d="M67.8,18l0.2-0.3c-0.1-0.1-0.3,0-0.3-0.1C67.5,17.8,67.6,17.9,67.8,18"/>
	<path class="st1" d="M67.8,18.4l0.1-0.1C67.8,18.3,67.8,18.3,67.8,18.4"/>
	<path class="st1" d="M68,18l-0.2,0.3c0.1,0.1,0.1,0.2,0.1-0.1C68,18.3,68,18.2,68,18"/>
	<path class="st1" d="M68.2,18c0.2,0,0.4,0,0.2,0.3c0.2-0.1,0.2-0.3,0.2-0.3C68.6,17.9,68.4,17.9,68.2,18"/>
	<path class="st1" d="M69.7,18.8l0.2,0.1c0-0.1,0.1-0.1,0.1-0.2C70,18.8,69.7,18.6,69.7,18.8"/>
	<path class="st1" d="M66.3,18.5c0,0.1,0.2,0.2,0.3,0.3l0.1-0.2C66.6,18.6,66.4,18.6,66.3,18.5"/>
	<path class="st1" d="M66.7,18.8l-0.1,0.3C66.7,19,66.7,18.9,66.7,18.8"/>
	<path class="st1" d="M68,18.9c0.1-0.2,0.1-0.4,0.2-0.5C68.1,18.6,68,18.8,68,18.9L68,18.9z"/>
	<polygon class="st1" points="65.5,19.1 65.4,18.8 65.4,19.3 	"/>
	<path class="st1" d="M64.9,19.6c0-0.2-0.4-0.1-0.3-0.3c-0.1,0.2-0.1,0.4-0.1,0.6C64.5,19.8,64.7,19.7,64.9,19.6"/>
	<path class="st1" d="M64.4,20.3c0-0.1,0-0.2,0-0.3C64.4,20,64.4,20.1,64.4,20.3"/>
	<path class="st1" d="M66.1,19.3c-0.1,0-0.2-0.2-0.4-0.1L66.1,19.3C66.1,19.4,66.1,19.4,66.1,19.3"/>
	<path class="st1" d="M66,19.4L66,19.4c-0.1,0.1-0.2,0.1-0.2,0.1C65.9,19.5,65.9,19.5,66,19.4"/>
	<path class="st1" d="M66.1,19.3C66.1,19.3,66.1,19.3,66.1,19.3C66.1,19.4,66.2,19.4,66.1,19.3"/>
	<path class="st1" d="M67.3,19c0,0.2-0.2,0.5,0.2,0.6C67.4,19.4,67.2,19.3,67.3,19"/>
	<path class="st1" d="M66.5,19.6l0.3-0.1c0-0.1-0.2-0.1-0.1-0.2L66.5,19.6z"/>
	<polygon class="st1" points="66.4,19.7 66.5,19.6 66.4,19.6 	"/>
	<path class="st1" d="M65,20.1c0,0.2-0.1,0.3-0.2,0.4c0.2-0.1,0.3-0.2,0.4-0.3C65.2,20.2,65.1,20,65,20.1"/>
	<path class="st1" d="M65.5,19.8C65.5,19.8,65.5,19.8,65.5,19.8C65.5,19.8,65.5,19.8,65.5,19.8"/>
	<path class="st1" d="M63.8,21.6C63.8,21.6,63.9,21.7,63.8,21.6L63.8,21.6L63.8,21.6z"/>
	<path class="st1" d="M65.3,20.3c0.1,0,0.1-0.1,0.1-0.3C65.4,20.1,65.3,20.2,65.3,20.3C65.3,20.3,65.3,20.3,65.3,20.3"/>
	<path class="st1" d="M64.2,20.7c0.1,0,0.2,0,0.3,0C64.4,20.6,64.2,20.6,64.2,20.7"/>
	<path class="st1" d="M65.4,19.8C65.4,19.8,65.4,19.8,65.4,19.8C65.4,19.7,65.4,19.7,65.4,19.8"/>
	<path class="st1" d="M65.4,19.8c0,0.1,0,0.2,0,0.2C65.5,20,65.5,19.9,65.4,19.8C65.5,19.8,65.4,19.8,65.4,19.8"/>
	<path class="st1" d="M65.1,23.1c-0.2-0.2-0.3-0.6,0.1-0.6c0-0.3-0.8-0.8-1.4-0.9c0.1,0.1,0.2,0.2,0.1,0.5c0.2,0,0.6-0.3,0.7,0.1
		c-0.1,0.4-0.2,0.2-0.5,0.2c0.4,0.1,0.2,0.6,0.6,0.9l0-0.3C65,23,65,23.2,65.1,23.1"/>
	<path class="st1" d="M64.2,21.3l0.1-0.1c-0.1,0.1-0.3,0.1-0.6,0.1c0,0.2,0,0.3,0.1,0.4l0.2-0.2L64.2,21.3L64.2,21.3z"/>
	<path class="st1" d="M64.6,20.8c0.2,0.3,0.1,0.6,0.4,0.7c0.2-0.2,0-0.3,0-0.6C64.8,21.3,65.1,20.6,64.6,20.8
		c0.1-0.1,0.1-0.2,0.2-0.2c-0.1,0-0.2,0.1-0.3,0.1c0,0,0,0,0,0l0,0l0,0c0,0,0.1,0,0,0C64.6,20.7,64.6,20.7,64.6,20.8
		C64.6,20.7,64.6,20.7,64.6,20.8C64.5,20.8,64.6,20.7,64.6,20.8c-0.1-0.1-0.1-0.1-0.1-0.1c0,0,0,0,0,0l-0.2,0.5
		C64.4,21.1,64.5,21,64.6,20.8"/>
	<path class="st1" d="M67.6,20.3C67.6,20.3,67.5,20.3,67.6,20.3C67.5,20.3,67.5,20.3,67.6,20.3"/>
	<path class="st1" d="M67.3,20.3c0-0.1,0-0.2,0.1-0.2c0.1,0,0.1,0.1,0.1,0.2c0-0.1,0.1-0.3-0.2-0.3l0,0.1c-0.2,0-0.7-0.1-0.7-0.2
		C66.9,20,67.1,20.1,67.3,20.3"/>
	<path class="st1" d="M66,20.5l-0.2,0.4l0.3,0.1L66,20.8C66.2,20.7,66.1,20.6,66,20.5"/>
	<path class="st1" d="M63.7,21.6l-0.2-0.2c0.1,0.2,0.1,0.3,0.2,0.5L63.7,21.6z"/>
	<polygon class="st1" points="63.3,22.1 63.1,21.9 63.2,22.1 	"/>
	<path class="st1" d="M78.4,35.6l0-0.1C78.4,35.5,78.4,35.5,78.4,35.6"/>
	<path class="st1" d="M77.8,36l0.1,0.1C77.8,36,77.8,35.9,77.8,36"/>
	<path class="st1" d="M63.5,35.9c-0.1,0.3-0.3,0.7,0,0.5l0.2-0.2C63.6,36.1,63.5,36,63.5,35.9"/>
	<path class="st1" d="M72.2,38.9C72.2,38.9,72.2,38.9,72.2,38.9c-0.1,0-0.1,0.1-0.2,0.2C72.1,39.1,72.1,39,72.2,38.9"/>
	<path class="st1" d="M72.4,37.7l0.2,0.2C72.6,37.8,72.5,37.8,72.4,37.7"/>
	<path class="st1" d="M80.5,32.5l-0.2-0.2C80.1,32.4,80.3,32.4,80.5,32.5"/>
	<path class="st1" d="M61.4,27.8c-0.1,0.2-0.2,0.3-0.2,0.4C61.3,28,61.6,27.9,61.4,27.8"/>
	<path class="st1" d="M80.1,38.3c0-0.1,0-0.2,0-0.2C80,38.2,80,38.3,80.1,38.3"/>
	<path class="st1" d="M61.1,28.7C61.2,28.7,61.2,28.7,61.1,28.7c0-0.2,0-0.3,0-0.5C61,28.4,60.9,28.6,61.1,28.7"/>
	<path class="st1" d="M77.6,19.4C77.6,19.4,77.6,19.4,77.6,19.4C77.6,19.4,77.6,19.4,77.6,19.4"/>
	<path class="st1" d="M74.8,14.6c0.1,0,0.1,0,0.2,0C75,14.6,74.9,14.6,74.8,14.6"/>
	<path class="st1" d="M62,24.2C62.1,24,62,24.1,62,24.2"/>
	<path class="st1" d="M63.4,24.1c0,0,0.1,0.1,0.1,0.1C63.4,24.2,63.4,24.2,63.4,24.1"/>
	<path class="st1" d="M63.1,29.8L63.1,29.8C63.1,29.8,63.1,29.8,63.1,29.8"/>
	<path class="st1" d="M62.3,24c-0.1,0-0.1,0.1-0.2,0.1C62.1,24.1,62.2,24.1,62.3,24"/>
	<path class="st1" d="M62.1,24C62.1,24,62.2,23.9,62.1,24C62.1,23.9,62.1,23.9,62.1,24"/>
	<path class="st1" d="M62,24.3c0-0.1,0.1-0.1,0.1-0.2c0,0,0,0-0.1,0C62,24.2,62,24.2,62,24.3"/>
	<path class="st1" d="M82.1,26C82.1,26,82.1,26,82.1,26C81.9,25.9,82,25.9,82.1,26"/>
	<path class="st1" d="M67.8,35.8C67.8,35.8,67.8,35.8,67.8,35.8C67.8,35.8,67.8,35.8,67.8,35.8L67.8,35.8z"/>
	<path class="st1" d="M68.2,35.8c-0.3,0.2-0.4,0.1-0.4,0c-0.1,0.3-0.3,0.5-0.4,0.8C67.6,36.3,67.9,36.1,68.2,35.8"/>
	<path class="st1" d="M79.5,34.3l-0.4,0c-0.2-0.5,0.1-0.5-0.4-0.6c0.4,0.3,0.2,0.5,0.1,0.7c-0.1,0.2-0.3,0.3,0.1,0.7l-0.2,0
		c0,0,0-0.1,0-0.1c-0.5-0.2,0.3,0.7-0.1,0.8c-0.2,0-0.3,0-0.3-0.2l-0.1,0.4c-0.1,0-0.2-0.1-0.1-0.1c-0.1,0.1-0.2,0.2-0.3,0.3l0,0
		c0,0.2,0,0.4,0,0.6c-0.2-0.1,0-0.1-0.1-0.2l-0.1,0.3c-0.2-0.2-0.2-0.5,0-0.5c-0.4-0.3-0.4-0.3-0.4-0.1c0,0.1,0,0.4-0.4,0.2
		c0-0.1,0.1-0.1,0.1-0.2c-0.4-0.4-0.4-0.2-0.8-0.4c0.1,0.1,0.3,0.2,0.4,0.4c0.2,0.2,0.3,0.3,0.3,0.5c-0.1,0-0.2,0-0.3,0.2
		c-0.1-0.3-0.2-0.2-0.4-0.1l-0.2-0.4c-0.1,0.2,0,0.4-0.1,0.6c-0.2,0-0.4-0.3-0.5-0.5c-0.3,0,0.4,0.5,0,0.7c-0.3-0.1-0.5,0.1-0.7,0.5
		c-0.2-0.1,0-0.3-0.1-0.4l-0.1,0.4c0,0-0.1-0.1-0.1-0.2c-0.1,0.2,0.1,0.4-0.2,0.6c0,0.2-0.2,0.1-0.3-0.1c-0.2-0.2-0.4-0.3-0.5,0
		c-0.1-0.1,0-0.3,0-0.5c-0.4,0.4-0.3,0.3-0.7,0.8l-0.3-0.3c0.2,0.3-0.1,0.7-0.4,1c0.1,0.2,0.1,0.3,0.2,0.4c-0.2,0.1-0.3,0.2-0.5,0.2
		c0-0.1,0-0.2,0.1-0.4c0,0-0.1,0.1-0.1,0.1c-0.1-0.2,0-0.4,0.1-0.7c0,0.1,0.1,0.2,0.1,0.3c0.1-0.3,0.2-0.6,0.2-0.8
		c0,0.1-0.1,0.1-0.1,0.1c0-0.1,0.1-0.1,0-0.2c0,0-0.1,0-0.1,0.2l0-0.5l0,0.2l-0.4-0.4c-0.1,0.1-0.2,0.2-0.3,0.4
		c-0.1,0.1-0.2,0.2-0.4,0.3c-0.3,0.2-0.6,0.4-0.9,0.4c0.3-0.3,0.2-0.6,0.4-1c0,0.5,0.5-0.1,0.7,0.1c-0.1-0.1-0.1-0.3,0-0.3
		c-0.2,0.1-0.4,0.2-0.6,0.3c0.1-0.3,0-0.3-0.1-0.5c-0.1,0.7-0.5,0.3-0.8,0.4c0.1-0.2,0.2-0.4,0.4-0.3c0-0.3-0.2-0.1-0.4,0
		c-0.2,0.2-0.3,0.3-0.4,0.1c0.1,0,0.1,0.1,0.2,0c-0.2,0.1-0.5-0.2-0.3-0.3l0.1,0c-0.1-0.1-0.2-0.1-0.3-0.2c-0.1-0.1-0.3-0.1-0.4-0.2
		c-0.3-0.1-0.6-0.1-0.8,0.2c0-0.1,0.5-0.6,0.5-0.6c-0.6,0.4-1.2,0.8-1.9,1.1c0.4-0.4,0.9-1.5,1.4-1.5c0-0.1-0.1-0.2-0.3-0.3
		c0,0.1-0.4,0.7-0.5,0.7c0.2-0.6,0.1-0.4,0.2-0.9c0,0.1-0.6,0.7-0.8,0.5c0.1-0.1,0.6-0.6,0.7-0.6c-0.3,0.1-0.6,0.2-0.9,0.3
		c0.2,0,0.5-0.4,0.6-0.7c-0.1,0.1-0.2-0.3-0.4-0.3l0,0.2c-0.1-0.2-0.4-0.1-0.7,0c-0.3,0.1-0.6,0.2-0.7-0.1c0.2,0,0.9-0.5,0.8-0.7
		c-0.2,0.1-0.7,0.2-1.2,0.3c-0.5,0.1-1,0.1-1.3,0l0.2-0.2l-0.4-0.2c0.3,0,0.8,0,1.4-0.1c0.5,0,1-0.1,1.3-0.1
		c0.1-0.2,0.2-0.2,0.1-0.4c0.1-0.2,0.3-0.1,0.4,0L66,32.7c-0.4,0.3-0.6-0.2-0.9,0c0.2,0.1,0.5,0.2,0.7,0.3c-0.2,0.1-0.5,0.2-0.8,0.2
		c-0.3,0-0.6-0.1-0.6-0.4c0.1-0.2,0.8-0.3,0.9-0.4c-0.2,0-0.5-0.2-0.4-0.3c0.1,0,0.2,0,0.3,0.1c0.1-0.3-0.7-0.1-0.4-0.5
		c0-0.1,0.5-0.5,0.2-0.4c-0.5,0.3-2,0.9-2.5,0.9c0-0.1,0.3-0.8,0.6-0.9c0.4-0.3,1,0,1.4-0.2c-0.1,0-0.3,0-0.4,0
		c0.1-0.1,0.4-0.1,0.3-0.3c-0.5,0.1,0-0.5-0.4,0c-0.2-0.2,0.1-0.3,0-0.5c-0.3,0.1-1.1-0.1-1.3-0.3c0.1,0,0.3-0.1,0.3-0.1
		c0-0.3,0.1-0.5,0.1-0.6c0-0.1,0-0.2,0.1-0.3c0-0.1,0-0.2,0.1-0.3c0.1,0,0.3-0.2,0.5-0.1c-0.1-0.1-0.2-0.1-0.2-0.3
		c0.4-0.2,0,0.3,0.6,0.1c-0.3,0-0.4-0.4-0.5-0.6c-0.2,0-0.3,0.1-0.2,0.3c0,0.1,0.2,0.3,0.3,0.4c-0.3,0-0.6-0.1-0.9-0.3
		c-0.1-0.1-0.2-0.2-0.3-0.3c-0.1-0.1-0.2-0.3-0.2-0.4c-0.1-0.4,0.4-0.1,0.3-0.2c0.1-0.2,0-0.3,0-0.5c-0.1-0.1-0.2-0.2-0.2-0.3
		c-0.2-0.2-0.3-0.4,0-0.7c0.4-0.2,0.7,0.2,1,0.2c0.1,0.4-0.4,0.4-0.4,0.6l0.2-0.2c0.1,0.1,0.1,0.4,0,0.5c0.2-0.1,0.3-0.4,0.4-0.7
		c0-0.2,0.1-0.3,0.2-0.5c0.1-0.2,0.2-0.3,0.3-0.4c-0.1-0.1-0.1-0.4-0.3-0.3c0,0.1,0,0.1,0,0.2c-0.3,0-0.3-0.5-0.5-0.3
		c-0.1-0.3-0.3-0.7,0.1-1l0.4,0.1c-0.1-0.1-0.3,0.1-0.3,0.2c-0.1-0.1,0.1-0.2,0.3-0.3c0.1-0.1,0.3-0.2,0.1-0.4l-0.4,0.1
		c-0.1-0.3-0.3-0.9,0-1.1c-0.4-0.1,0,0.1-0.6,0c0.6,0.1-0.5,0.8,0.3,0.8c-0.6-0.1-0.4,0.3-1,0.4c0.1,0.1,0.3,0,0.1,0.2
		c0,0,0.1,0.1,0.1,0.1c0,0,0,0,0,0l0,0c0,0,0,0,0,0c0.1,0,0.2-0.1,0.3,0c0.1,0.1,0.1,0.3,0.1,0.5c0,0.2,0,0.3,0,0.4
		c-0.1,0.1-0.1-0.1-0.3-0.1l0.2,0.3c-0.3-0.1-0.7,0.3-0.7-0.2l-0.1,0.4c-0.2,0.2-0.4,0.4-0.3,0.7c-0.1,0.2,0.2,0.5,0,0.3l0,0.3
		l0,0.3l-0.1,0c-0.1,0.3,0,0.6,0,0.9c0,0.3,0,0.6-0.3,0.9c0.1,0.2,0.2,0.4,0.1,0.7L61,29.4c0.1,0.2-0.2,0.8,0.1,0.9
		c-0.3,0.2-0.3,0.5-0.2,0.8c0.1,0.3,0.3,0.7,0.3,0.9l0.3-0.1c0,0.2,0.1,0.3,0.2,0.4c0.1,0.1,0.2,0.3,0.3,0.4l0.3-0.1
		c0.2,0.1,0.2,0.3,0.2,0.6c0,0.2,0,0.5,0.1,0.7c-0.1,0-0.2-0.1-0.1-0.2c-0.2,0.4,0.1,0.7,0.4,0.9c0.3,0.2,0.6,0.4,0.5,0.7
		c0.2,0.1,0.2,0.1,0.2,0.3c0,0,0,0,0,0c0,0,0,0,0,0c0,0.1,0,0.2,0,0.3c0-0.1,0-0.2,0-0.2c0.1,0.1,0.2,0.2,0.4,0.3l-0.2,0.3
		c0,0,0,0,0,0c0,0.2,0.2,0,0.4-0.2c0.1,0,0.2,0,0.3,0c-0.3,0.4,0.4,0.2,0.1,0.7c0.3-0.1,0.7,0.4,1.2,0c-0.1,0.1,0,0.1-0.1,0.1
		c0.1,0.2,0.2,0.3,0.4,0.3l-0.2,0.4c0.2-0.1,0.4-0.1,0.6-0.2c0,0.3,0,0.5-0.4,0.6c0.7-0.1,0.5,0.1,1.1,0l-0.2,0.2
		c0.1,0.1,0.6-0.1,0.5,0.1c0,0.3,0.4,0.6,0.9,0.8c0.5,0.3,1,0.5,1.4,0.9c0-0.4,0.1-0.3,0.2-0.1c0.1,0.1,0.2,0.3,0.3,0
		c0,0.2,0.1,0.3-0.1,0.5c0.5-0.1,0.7,0.5,1.1,0c0,0.2-0.2,0.3-0.1,0.4c0,0,0.2-0.1,0.2,0c0,0.1-0.1,0.1-0.2,0.2
		c0.5,0,0.7-0.5,0.8-1.1c0.2,0.3,0.3,0.3,0.5-0.1c0.1,0.2,0.2,0.4-0.1,0.4c0.2,0,1,0.3,1-0.1c0.1,0.1,0.2,0,0.3,0
		c0.4,0,0.4,0.1,0.8,0c0,0-0.1,0-0.1-0.1c0.1-0.6,0.3-0.2,0.6-0.3v0.1c0.4,0.1,0.4,0.1,0.5,0c0.1,0,0.1-0.1,0.5,0l-0.1-0.3
		c-0.1-0.4,0.1-0.3,0.3-0.2c0.2,0.1,0.5,0.3,0.6,0.1l-0.2-0.1c0.1-0.2,0.3,0,0.5,0.3c0.2,0.2,0.5,0.5,0.6,0.5c0.1,0,0,0.1-0.1,0.2
		c0.7,0.2-0.1-0.4,0.3-0.7c0.2,0.2,0.1,0.6,0.4,0.5c0.1,0.1,0.2-0.2,0.4-0.5c0.2-0.2,0.3-0.5,0.6-0.4c-0.2-0.1-0.3-0.2-0.2-0.4
		c0.1-0.1,0.4-0.1,0.6-0.1c0.2,0,0.4-0.1,0.4-0.4c0.1,0,0.1,0,0.1,0.1c0-0.1,0.2-0.3,0.3-0.5c0.1-0.2,0.1-0.4,0.1-0.5
		c0.5,0.4,0.7,0,0.8-0.3c0.1-0.4,0.2-0.7,0.6-0.3l0.2-0.3l0.2-0.3l0.1,0.1c0.3-0.3,0.2-0.6,0.1-0.9c0.1,0,0.2,0.1,0.2,0.1
		c0.3-0.2,0.4-0.4,0.4-0.5c0-0.2,0-0.4-0.1-0.7l0.3,0.1c-0.1-0.1,0.2-0.3,0.4-0.5c0.2-0.2,0.4-0.6,0.4-0.9c0,0,0.1,0.1,0.1,0.1
		c-0.1-0.4,0.3-0.8,0.5-1.1c0.1-0.1,0.1-0.2,0.1-0.3c0-0.1,0-0.2,0-0.3c0-0.2-0.2-0.3-0.5-0.4L84,30.1c-0.2,0.6-0.5-0.2-0.8,0.1
		c0-0.2,0.4-0.5,0.5-0.3l-0.1,0c0.7,0.2,0.3-0.7,0.7-0.7c0-0.6,0.1-1.2,0.1-1.8c0-0.6,0.1-1.2,0-1.7L84,26l0-0.4
		c0.1-0.1,0.4-0.2,0.4,0.1c0.3-0.2-0.3-0.4-0.4-0.4c0.1-0.6,0.6,0.1,0.6-0.1L84.4,25l0,0.1c-0.2-0.1-0.5-0.1-0.5-0.4
		c0-0.2,0.3-0.2,0.3-0.3c0,0,0,0,0-0.1L84,23.7L83.7,24c-0.3-0.1-0.1-0.4-0.5-0.1c0.3-0.3,0.2-0.7,0-1.1c-0.2-0.4-0.4-0.8-0.3-0.9
		c-0.4-0.1-0.5-0.4-0.7-0.8c0,0.1-0.4,0.4-0.5,0.1c0.9-0.4,0.1-0.7,0.5-1.3c-0.3,0.4-0.6-0.7-0.9,0c-0.1-0.3,0.3-0.2,0.3-0.5
		c-0.3-0.2-0.5-0.5-0.7-0.8c-0.2-0.3-0.4-0.7-0.7-1c-0.1,0.1-0.1,0.3-0.4,0.3c0-0.2,0.1-0.5,0.1-0.7c-0.2-0.1-0.6,0.4-0.5-0.1
		c0,0.1-0.1,0.3-0.2,0.2c-0.4-0.7-1.2-1.1-1.9-1.5c-0.8-0.3-1.5-0.6-2.2-1.4c0.2,0.3,0,0.3-0.2,0.2c0.1,0.1-0.1,0.3-0.1,0.5
		c-0.2-0.2-0.4-0.4-0.6-0.6c-0.1,0.2-0.3,0.2-0.5,0.2c-0.2,0-0.4,0-0.4,0.2l0.2-0.1c-0.2,0.3-0.1,0.5,0,0.9c0.1,0.3,0.2,0.7,0.1,1
		c0.2-0.3,0.3,0,0.5,0.2c0.2,0.2,0.3,0.4,0.6,0.1c0,0.2-0.1,0.2-0.1,0.4c0.2-0.3,0.3-0.3,0.5-0.1l0,0.1c0.6,0.2,0.8,0.5,1.3,1.1
		l0.1-0.3c0.1,0.1,0.1,0.2,0.1,0.3c0.4-0.3-0.4-0.3,0.1-0.6c0,0.2,0,0.3,0.1,0.4c0.1,0.1,0.2,0.2,0.3,0.3c0.2,0.2,0.4,0.4,0.2,0.7
		c0.2,0.2,0.2-0.3,0.4-0.2l-0.1,0.2l0.2-0.2c0.1,0.1,0,0.4-0.1,0.5c0,0-0.1,0-0.2-0.1c0,0.3,0.5,0.3,0.5,0.4c0-0.1,0-0.2-0.1-0.3
		c0.3,0.2,0.5,0.4,0.8,0.7c0.2,0.3,0.5,0.5,0.9,0.7l0.1-0.1c0.5,0.3,0.1,0.4,0.5,0.8l0,0c0.2,0,0.3,0.1,0.4,0.3
		c-0.2,0-0.2,0.4-0.5,0.3c0.5,0.3,0.3,0.1,1,0.2L81,22.8c0.3,0,0.4,0,0.6,0.2c-0.3-0.1-0.3,0.3-0.7,0.2c-0.1,0.4,0.1,0.5,0.2,0.7
		c0.2,0.1,0.3,0.2-0.1,0.5c0.8,0,0.2-0.6,0.4-0.5c0.2-0.2,0.6,0,0.6,0.2c0,0.2-0.8,0.6-0.6,1.1c0,0-0.1,0-0.1-0.1
		c-0.1,0.2,0.3,0.3,0.1,0.6c0.5,0,0,0.3,0.6,0.2c-0.1-0.1-0.1-0.3-0.2-0.4c0.2,0.2,0.9,0.3,0.7,0.8c-0.1,0-0.3-0.1-0.4-0.2
		c-0.1,0.2,0.2,0.2,0,0.4c-0.6,0.1-0.2-0.5-0.7-0.7c-0.2,0.2,0.5,0.4-0.1,0.4c0.8,0,0,0.5,0.6,0.7l-0.3,0c0.1,0,0.2,0.1,0.2,0.2
		l-0.5-0.1c0.4,0.2-0.3,0.5,0,0.7c-0.1-0.5,0.4-0.2,0.6-0.4c0.5,0.6-0.8,0.5-0.6,1.1c-0.1-0.1,0.2-0.4,0.3-0.2
		c-0.1,0.1-0.2,0.3-0.4,0.4c0.1,0.5,0.3-0.1,0.6,0.1c-0.4,0.2,0.2,0.2,0.3,0.4l-0.3,0c-0.2,0.5,0.7,0.2,0.4,0.6
		c-0.2-0.1-0.3-0.2-0.5-0.2l0.1,0.2l-0.4-0.1c0.3,0.3,0.2,0.4,0,0.6c0.2,0,0.6,0.1,0.6,0.4c-0.2,0.1-0.3-0.1-0.3,0.2
		c-0.2-0.1-0.4-0.2-0.1-0.3c-0.1,0-0.2-0.1-0.3-0.1c-0.1,0.1-0.1,0.2-0.2,0.2c0,0.1,0,0.2,0,0.2c0,0,0.1-0.1,0.1-0.1
		c0.1,0.2,0.2,0.4,0.3,0.6c-0.1,0-0.2,0-0.3-0.1c0,0.1,0.1,0.2,0.1,0.3c-0.3-0.1-0.5-0.2-0.6-0.4l0.1,0.2l0.1,0.2
		c-0.1,0-0.4,0.1-0.5,0c-0.1,0.1,0,0.2,0,0.4c0.1,0.2,0.1,0.4-0.1,0.5c0,0,0.1,0.1,0.1,0.2c-0.2,0.3-0.6,0.3-0.5,0.8
		c-0.2,0-0.3-0.1-0.5-0.1c-0.1,0.3,0.7,0.1,0.6,0.6c-0.1,0.4-0.4-0.2-0.6-0.1c0.1,0.1,0.1,0.3,0.1,0.5c0,0.2-0.1,0.3-0.3,0.3
		C79.4,34.4,79.5,34.4,79.5,34.3 M77,36.6c0-0.1,0-0.3,0.2-0.2C77.3,36.8,77.1,36.7,77,36.6 M71.7,38.2c0.1-0.1,0.1,0,0.2,0.1
		C71.9,38.3,71.8,38.3,71.7,38.2 M61.8,25.6C61.8,25.6,61.8,25.6,61.8,25.6C61.7,25.7,61.7,25.7,61.8,25.6 M62.1,25.2
		c0-0.1-0.1-0.1-0.1-0.1c0.1,0.1,0,0.1,0,0.2C62.1,25.4,62.1,25.4,62.1,25.2 M84,24.3L84,24.3C83.8,24.3,83.9,24.3,84,24.3"/>
	<path class="st1" d="M72.4,37.8c0,0.1,0,0.1,0,0.2C72.4,38,72.5,37.9,72.4,37.8"/>
	<path class="st1" d="M80.5,32.5C80.5,32.5,80.5,32.5,80.5,32.5C80.5,32.5,80.5,32.5,80.5,32.5L80.5,32.5z"/>
	<path class="st1" d="M64.6,31c0,0.1-0.1,0.1-0.1,0.2C64.6,31.1,64.6,31.1,64.6,31"/>
	<path class="st1" d="M62.5,22.9c0,0.1,0,0.2-0.1,0.3c0-0.1,0.1-0.1,0.2-0.2C62.6,23,62.5,23,62.5,22.9"/>
	<path class="st1" d="M65.5,22.3c0-0.1,0-0.1,0-0.1l-0.1-0.1C65.3,22.2,65.4,22.3,65.5,22.3"/>
	<path class="st1" d="M63.6,23.2c0.3,0.1,0.3-0.1,0.3-0.2c0,0,0,0,0,0C63.6,22.8,63.6,23,63.6,23.2"/>
	<path class="st1" d="M63.9,23c0-0.1,0-0.1,0.1-0.1C63.9,22.7,63.9,22.9,63.9,23"/>
	<path class="st1" d="M62.1,24.6c0.1-0.1-0.3-0.2-0.2-0.2C61.6,24.2,62.1,25.2,62.1,24.6"/>
	<polygon class="st1" points="64.5,23.6 64.2,23.5 64.3,23.7 	"/>
	<path class="st1" d="M63.6,24.7l0.2-0.2c-0.1,0-0.1-0.1-0.1-0.1C63.7,24.5,63.5,24.6,63.6,24.7"/>
	<path class="st1" d="M63.8,24.3c0-0.1,0.1-0.2,0-0.2C63.8,24.2,63.8,24.3,63.8,24.3"/>
	<path class="st1" d="M64.4,24l-0.1,0c0,0-0.1,0.1-0.1,0.1C64.2,24.1,64.3,24,64.4,24"/>
	<path class="st1" d="M62.8,27.4l0.1,0.3c0.1,0,0.2,0,0.2-0.1C62.9,27.5,62.9,27.4,62.8,27.4"/>
	<path class="st1" d="M63.9,26.8c-0.1,0.1-0.2,0-0.3,0.1l0.4,0.1L63.9,26.8z"/>
	<path class="st1" d="M63.8,27.5c0.1,0,0.3,0.4,0.3,0.1C64,27.6,64,27.3,63.8,27.5"/>
	<polygon class="st1" points="63.6,31.7 63.5,31.6 62.9,31.8 	"/>
	<path class="st1" d="M66.6,33.9c0-0.3-0.4,0.2-0.4-0.1c-0.2,0,0,0.3-0.2,0.3C66.3,34.2,66.3,34.3,66.6,33.9"/>
	<path class="st1" d="M66.1,34.1c0,0-0.1,0-0.1,0C66,34.1,66,34.1,66.1,34.1"/>
	<path class="st1" d="M73.9,14.1c-0.1-0.1-0.2-0.1-0.3-0.2l0.2,0.2L73.9,14.1z"/>
	<path class="st1" d="M73.3,14.6l-0.1-0.5l-0.2,0.4C73.2,14.6,73.3,14.5,73.3,14.6"/>
	<path class="st1" d="M76.1,36l0,0.1c0.1,0.1,0.1,0.1,0.2,0.1L76.1,36z"/>
	<polygon class="st1" points="78.3,35.1 78.2,35.1 78.6,35.4 	"/>
	<path class="st1" d="M79.2,33.3c-0.1,0.1,0,0.2-0.1,0.2C79.1,33.4,79.6,33.6,79.2,33.3"/>
	<polygon class="st1" points="0.2,58.8 0.2,57.9 2.7,54.6 0.2,54.6 0.2,53.6 4.1,53.6 4.1,54.5 1.7,57.8 4.2,57.8 4.2,58.8 	"/>
	<polygon class="st1" points="6.4,58.8 6.4,53.6 10,53.6 10,54.6 7.5,54.6 7.5,55.7 10,55.7 10,56.6 7.5,56.6 7.5,57.8 10,57.8 
		10,58.8 	"/>
	<path class="st1" d="M15.2,58.8l-1-1.8h-0.8v1.8h-1.1v-5.2h2.4c1.1,0,1.8,0.7,1.8,1.7c0,0.9-0.6,1.4-1.1,1.5l1.2,2H15.2z
		 M15.3,55.3c0-0.4-0.3-0.7-0.8-0.7h-1.2V56h1.2C15,56,15.3,55.7,15.3,55.3"/>
	<path class="st1" d="M18.4,56.2c0-1.6,1.1-2.7,2.7-2.7c1.6,0,2.7,1.1,2.7,2.7s-1.1,2.7-2.7,2.7C19.5,58.9,18.4,57.8,18.4,56.2
		 M22.7,56.2c0-1-0.6-1.7-1.6-1.7c-1,0-1.6,0.7-1.6,1.7c0,1,0.6,1.7,1.6,1.7C22.1,57.9,22.7,57.2,22.7,56.2"/>
	<polygon class="st1" points="30.5,58.8 30.5,54.6 29,54.6 29,53.6 33.2,53.6 33.2,54.6 31.6,54.6 31.6,58.8 	"/>
	<path class="st1" d="M34.8,56.2c0-1.6,1.1-2.7,2.7-2.7c1.6,0,2.7,1.1,2.7,2.7s-1.1,2.7-2.7,2.7C35.9,58.9,34.8,57.8,34.8,56.2
		 M39.1,56.2c0-1-0.6-1.7-1.6-1.7c-1,0-1.6,0.7-1.6,1.7c0,1,0.6,1.7,1.6,1.7C38.5,57.9,39.1,57.2,39.1,56.2"/>
	<polygon class="st1" points="42.3,58.8 42.3,53.6 43.4,53.6 43.4,57.8 45.6,57.8 45.6,58.8 	"/>
	<polygon class="st1" points="47.7,58.8 47.7,53.6 51.4,53.6 51.4,54.6 48.9,54.6 48.9,55.7 51.4,55.7 51.4,56.6 48.9,56.6 
		48.9,57.8 51.4,57.8 51.4,58.8 	"/>
	<path class="st1" d="M56.6,58.8l-1-1.8h-0.8v1.8h-1.1v-5.2h2.4c1.1,0,1.8,0.7,1.8,1.7c0,0.9-0.6,1.4-1.1,1.5l1.2,2H56.6z
		 M56.7,55.3c0-0.4-0.3-0.7-0.8-0.7h-1.2V56h1.2C56.4,56,56.7,55.7,56.7,55.3"/>
	<path class="st1" d="M63.6,58.8l-0.3-0.9h-2.2l-0.3,0.9h-1.3l2-5.2h1.4l2,5.2H63.6z M62.2,54.7l-0.8,2.2H63L62.2,54.7z"/>
	<polygon class="st1" points="70.3,58.8 67.8,55.4 67.8,58.8 66.7,58.8 66.7,53.6 67.9,53.6 70.3,56.9 70.3,53.6 71.4,53.6 
		71.4,58.8 	"/>
	<path class="st1" d="M73.5,56.2c0-1.6,1.2-2.7,2.8-2.7c1.1,0,1.8,0.6,2.2,1.3l-1,0.5c-0.2-0.4-0.7-0.8-1.2-0.8
		c-0.9,0-1.6,0.7-1.6,1.7c0,1,0.7,1.7,1.6,1.7c0.5,0,1-0.3,1.2-0.8l1,0.5c-0.4,0.6-1,1.3-2.2,1.3C74.7,58.9,73.5,57.8,73.5,56.2"/>
	<polygon class="st1" points="80.5,58.8 80.5,53.6 84.2,53.6 84.2,54.6 81.6,54.6 81.6,55.7 84.1,55.7 84.1,56.6 81.6,56.6 
		81.6,57.8 84.2,57.8 84.2,58.8 	"/>
</g>
</svg>
