<svg version="1.1" id="Layer_1" xmlns="http://www.w3.org/2000/svg" xmlns:xlink="http://www.w3.org/1999/xlink" x="0" y="0" viewBox="0 0 84.8 66.4" xml:space="preserve"><style>.st1,.st2{clip-path:url(#SVGID_2_);fill:#24195d}.st2{fill:#991636}</style><path d="M5.9 2.4L7.6 7H4.3l1.6-4.6zM4.5.2L.4 10.8H3L3.7 9h4.6l.7 1.8h2.6L7.4.2H4.5z" fill="#24195d"/><defs><path id="SVGID_1_" d="M0 0h84.8v66.4H0z"/></defs><clipPath id="SVGID_2_"><use xlink:href="#SVGID_1_" overflow="visible"/></clipPath><path class="st1" d="M15.2 9.3l1.2-1.8c.8.8 2 1.5 3.4 1.5 1.3 0 1.9-.6 1.9-1.2 0-1.9-6.1-.6-6.1-4.6 0-1.8 1.5-3.2 4-3.2 1.7 0 3.1.5 4.1 1.5l-1.3 1.7c-.9-.8-2-1.2-3.1-1.2-1 0-1.5.4-1.5 1.1 0 1.7 6.1.5 6.1 4.5 0 1.9-1.4 3.4-4.3 3.4-1.9 0-3.4-.7-4.4-1.7m16.1 1.5V2.2h-3.1v-2h8.5v2h-3.1v8.6zm17.7 0V6.3h-5v4.5h-2.3V.2H44v4.1h5V.2h2.3v10.6zm17.2 0V3.1l-3 7.7h-.9l-3-7.7v7.7H57V.2h3.2l2.6 6.6L65.3.2h3.2v10.6zm15.4 0L80.9 9h-4.6l-.7 1.8H73L77.1.2H80l4.1 10.6h-2.5zm-3-8.4L77 7h3.3l-1.7-4.6z"/><path class="st2" d="M.2 39.5v-3.8l10.4-14.1H.2v-4.2h16.6v3.8L6.3 35.4H17v4.1zm20.4 0V17.4h15.6v4.2H25.3v4.6H36v4.2H25.3v5h10.9v4.1zm31.8 0l-4.3-7.9h-3.4v7.9H40V17.4h10.3c4.6 0 7.5 3 7.5 7.1 0 3.9-2.5 6-4.9 6.6l5 8.4h-5.5zm.5-15c0-1.8-1.4-3-3.3-3h-5v6h5c1.8 0 3.3-1.1 3.3-3"/><path class="st1" d="M.3 66.3v-4.8h3.2v.5H.9v1.6h2.5v.5H.9v2.2zm4.3-2.4c0-1.4 1-2.5 2.4-2.5s2.4 1.1 2.4 2.5-1 2.5-2.4 2.5-2.4-1.1-2.4-2.5m4.2 0c0-1.1-.7-2-1.8-2s-1.8.8-1.8 2c0 1.1.7 2 1.8 2 1.1-.1 1.8-.9 1.8-2m4.8 2.4l-1.2-1.9h-1v1.9h-.6v-4.8h1.9c.9 0 1.5.6 1.5 1.5s-.6 1.3-1.3 1.4l1.3 2h-.6zm.1-3.4c0-.5-.4-.9-1-.9h-1.3v1.8h1.3c.6.1 1-.3 1-.9m7.9 3.4l-.4-1.1h-2.4l-.4 1.1h-.7l1.9-4.8h.7l1.9 4.8h-.6zm-1.7-4.2l-1 2.6h2l-1-2.6zm3.1 3.5l.4-.5c.3.4.8.7 1.5.7.9 0 1.1-.5 1.1-.8 0-1.2-2.9-.5-2.9-2.3 0-.8.7-1.3 1.7-1.3.7 0 1.3.3 1.7.7l-.4.4c-.4-.4-.9-.6-1.4-.6-.6 0-1 .3-1 .8 0 1.1 2.9.5 2.9 2.3 0 .7-.5 1.4-1.8 1.4-.8 0-1.4-.3-1.8-.8m6.2.7V62h-1.6v-.5h3.7v.5h-1.5v4.3zm6.8 0v-2.2h-2.8v2.2h-.6v-4.8h.6v2.1H36v-2.1h.6v4.8zm6.4 0v-4.1l-1.7 4.1h-.2l-1.6-4.1v4.1h-.6v-4.8h.8l1.5 3.7 1.5-3.7h.9v4.8zm5.6 0l-.4-1.1h-2.4l-.4 1.1h-.7l1.9-4.8h.7l1.9 4.8H48zm-1.6-4.2l-1 2.6h2l-1-2.6zm9.3 4.2l-.4-1.1h-2.4l-.4 1.1h-.7l1.9-4.8h.7l1.9 4.8h-.6zm-1.6-4.2l-1 2.6h2l-1-2.6zm4.1 4.2V62h-1.5v-.5h3.6v.5h-1.5v4.3zm4.6 0V62h-1.5v-.5H65v.5h-1.6v4.3zm6.4 0l-.4-1.1h-2.4l-.4 1.1h-.7l1.9-4.8h.8l1.9 4.8h-.7zm-1.6-4.2l-1 2.6h2l-1-2.6zm3 1.8c0-1.5 1.1-2.5 2.5-2.5.9 0 1.4.4 1.8 1l-.5.3c-.3-.4-.8-.7-1.3-.7-1.1 0-1.9.8-1.9 2 0 1.1.8 2 1.9 2 .5 0 1.1-.3 1.3-.7l.5.3c-.4.6-1 1-1.8 1-1.4-.2-2.5-1.2-2.5-2.7m8.5 2.4l-1.8-2.2-.5.6v1.6h-.6v-4.8h.6V64l2.1-2.5h.8l-2.1 2.3 2.2 2.5zm1.6-.7l.4-.5c.3.4.8.7 1.5.7.9 0 1.1-.5 1.1-.8 0-1.2-2.9-.5-2.9-2.3 0-.8.7-1.3 1.7-1.3.7 0 1.3.3 1.7.7l-.4.4c-.4-.4-.9-.6-1.4-.6-.6 0-1 .3-1 .8 0 1.1 2.9.5 2.9 2.3 0 .7-.5 1.4-1.8 1.4-.8 0-1.4-.3-1.8-.8"/><path class="st2" d="M70.3 45.5c.1-.1-.2-.2 0-.3-.2 0-.4.1-.5.2.1-.1.3 0 .5.1m-18-.1c-.2-.2-.4-.4-.4-.2l.1.2c.1-.1.2 0 .3 0m26.6.8c.1 0 .1-.2.1-.2-.1.1 0 .3-.1.2m-1.9.4v-.1l-.3.2zm-1.8-.1c.2.3.7 0 1 .1l.1.1.2-.3c-.5 0-1 .2-1.3.1m-.9-.8c.1.1-.2.1.2.1-.1-.1-.1-.1-.2-.1m.2 0c.1 0-.2-.1 0 0m-.9.1l.3-.1c-.1-.1-.3-.1-.2-.2-.3.1-.3.1-.1.3m-.3.2h.1c0-.1 0-.1-.1 0m.4-.1l-.2.1c0 .1 0 .2.1 0 0 0 0-.1.1-.1m.2 0c.1.1.3.1.1.2.4 0 .4-.2-.1-.2m1.2.9l.2.1.2-.1c-.1.1-.4-.1-.4 0M72 45.5c0 .1.1.2.1.3l.2-.1c-.1 0-.3-.1-.3-.2m.1.3l-.3.1c.3 0 .3 0 .3-.1m1.2.6l.4-.3-.5.3zm-2.3-.9l.1-.2-.3.3zm-1.5 0c.1 0 .2-.1.3-.1-.2 0-.2.1-.3.1m1.9.4s-.1-.2-.2-.2l.1.2h.1m-.1 0h-.2c-.1-.1 0 0 .2 0m1.2.3c-.2.1-.5.2-.2.4.2-.2 0-.3.2-.4m-1-.1l.3.1c0-.1-.1-.1 0-.2l-.3.1zm-.1.1l.1-.1h-.1zm-1.4-.5c-.1.1-.3.1-.4.1.2 0 .3.1.5.1 0 0 .1-.2-.1-.2m.6.1c0 .1 0 .1 0 0m-2.6 0zm2.1.2c.1 0 .2 0 .3-.1-.1 0-.2 0-.3.1-.1-.1-.1 0 0 0m-1.1-.4c.1 0 .1.1.2.1 0 0-.1-.1-.2-.1m1.5.2c0-.1 0-.1 0 0m0 0c-.1 0-.1.1-.2.1.1 0 .2 0 .2-.1.1 0 0 0 0 0m-3 1.3c0-.2.4-.3.6-.1.3-.1.1-.7-.1-1.1 0 .1 0 .2-.3.3.1.1.6.3.4.4-.4.1-.3-.1-.5-.2.2.2-.5.3-.4.7l.3-.1c0-.1-.1 0 0 .1m1.1-1.2h.1c-.1 0-.2-.1-.4-.3-.2.1-.2.2-.3.2l.6.1z"/><path class="st2" d="M69.2 45.9c-.1.2-.4.3-.2.5.3 0 .3-.2.5-.2-.6-.1.1-.2-.3-.3h.3c-.1 0-.2-.1-.3-.1.1 0 .1 0 0 .1.1-.1.1-.1 0 0 .1-.1.1-.1 0 0-.1-.1 0-.1 0 0v-.1l-.6.1h.6M72 47s0-.1 0 0m-.2-.2s.1-.1.2-.1c.1.1 0 .1 0 .2.1-.1.3-.1 0-.2-.2-.1-.5-.3-.5-.4.1.2.2.4.3.5m-1.3-.4l-.5.1.2.2v-.1c.3 0 .3-.1.3-.2m-2.5-.7v-.2l-.3.3zm-.7 0l.1-.2-.2.1zm-34.5 2l-.1.1.1-.1m9.2-1.1c.1 0 .2-.1.2-.1-.1 0-.1.1-.2.1m-.1.8l-.3-.1c0 .1.1.1.3.1m-14.6.6l-.2.2c.3 0 .2-.1.2-.2m33.8-2.4c-.2-.1-.3-.1-.4-.1.1.1.3.3.4.1m-27.9 0c-.1 0-.1.1-.1.1 0-.1.1-.1.1-.1m26.9-.1c.1 0 .1 0 0 0h.5c-.1-.1-.3-.2-.5 0m4.8 0c.1 0 0 0 0 0m.6.8c0 .1-.1.1 0 0-.1.1 0 .1 0 0m-.4-.7s-.1 0-.2-.1c0 .1.1.1.2.1m-.4-.1h.2-.2m-46.6 2c-.1 0-.1 0 0 0m30.8 0zm-.5.2c.2-.3.3-.2.5-.2l-.2-.6-.3.8z"/><path class="st2" d="M30.4 47.8l.3.2c-.4.3-.7.2-.4.5 0-.6 1.3-.1 1.3-.7l.2.1h-.1c.4.3.3-.5.8-.4.2 0 .3.1.2.2l.4-.2c.1 0 .1.1 0 .1l.6-.1c.1-.1.3-.3.4-.3.2.1-.1.1 0 .1l.4-.2c.1.2-.1.3-.4.3.3.6.3-.2 1 .2l-.3.1c.2.4.5.2.9.5-.1-.1-.8-.6-.4-.7.1 0 .3.1.5-.1 0 .2.2.2.5.2v.3c.3-.1.2-.2.4-.4.3 0 .4.3.4.5.5 0-.3-.4.2-.4.4.1.7 0 1.2-.2.3.1 0 .2.1.3l.3-.2c.1 0 0 .1 0 .1.2-.1 0-.3.3-.4.1-.3.7.5 1.1.1.1.1 0 .2 0 .3.6-.2.5-.2 1-.5l.4.2c-.3-.2.1-.5.4-.7-.1-.1-.2-.2-.3-.2l.5-.2c.1.1 0 .2-.1.3 0 0 .1 0 .1-.1.2.1.1.3 0 .5l-.2-.2c-.1.2-.2.4-.2.6 0 0 .1-.1.2-.1 0 0-.1.1 0 .1 0 0 .1 0 .2-.1l.1.3v-.1l.7.2c.5-.3.9-.8 1.7-1-.2.2 0 .4-.1.7-.2-.3-.6.1-1 .1.2 0 .2.2.1.2l.7-.3c0 .2.2.2.3.3-.1-.5.5-.3.8-.5 0 .2-.1.3-.4.3.4.4.5-.6.9-.3-.1 0-.1 0-.2.1.2-.1.7 0 .6.1h-.1c.6.1 1.8 0 1.8-.4 0 .1-.1.5-.1.6l1-1.3c-.1.3.3 1.2-.2 1.4.1 0 .3.1.6 0-.1-.1-.2-.5-.1-.5.3.4.2.2.7.5-.1-.1 0-.6.2-.6 0 .1 0 .5-.1.6l.6-.5c-.1.1 0 .4.1.6-.1-.1.5 0 .6 0l-.2-.1c.6.1.6-.7 1.2-.7-.1.1-.2.7.1.7.1-.3.6-1.3 1.2-1.5l.1.2.4-.2c-.3.4-1 1.2-1.4 1.6.2.1.1.2.4.2.1.1-.2.2-.3.2l.8.1c0-.3.6-.3.6-.6l-.9.3c0-.3.5-.9 1.1-.8.1.1-.1.6-.1.7.1-.1.5-.2.6-.1l-.1-.1c.3.1.5-.4.9-.1.1 0 .4.4.4.2-.2-.4-.2-1.5-.1-1.7 0 0 .7.4.8.5.2.3-.3.7-.2.9 0-.1.1-.2.2-.2.1.1-.1.3.2.2.1-.3.6 0 .1-.3.3-.1.3.1.7.1-.1-.2.3-.7.6-.8 0 .1 0 .2.1.2.6 0 .9.2 1.5.2.1.1.3.2.2.3.1-.1.2-.2.3-.2.3.3-.4 0-.1.4 0-.2.5-.2.7-.4-.1-.3-.6-.1-.8 0 0-.4.5-.8 1-1 .5-.1.2.3.3.2.9.1.8-.7 1.5-.4.3.3 0 .5.1.7-.4.1-.6-.2-.8-.2l.3.1c-.1.1-.4.1-.5.1.2.2 1.5.1 2.2.3.1-.1.3-.2.2-.3h-.2c-.2-.2.4-.3.1-.4.3-.1.6-.4 1-.2l.1.3c0-.1-.3-.2-.4-.1.2-.1.6.4.8 0l-.2.2c.3-.1.7-.4 1-.3-.2-.3-.1 0-.3-.3.2.4-.9 0-.6.4-.3-.4-.5-.2-.8-.5 0 .1.1.2-.2.1 0 0 0 .1-.1.1.1 0 .1.1.2.1-.2.2-.6.2-.8.3-.2 0 .1-.1 0-.2l-.2.1c0-.2-.5-.4 0-.5h-.4c-.2-.1-.5-.2-.7-.1-.2 0-.5.2-.3.1l-.6.1v-.1c-.6 0-1.2.3-1.9-.1-.2 0-.4.1-.7 0l-.1-.2c-.3.1-.8-.2-.9 0-.3-.5-1.2-.1-1.7-.2v.2c-.3 0-.6 0-1 .1v.2c-.3.2-.8-.2-1.4-.1 0-.1.2-.1.3 0-.6-.5-1.3.3-1.9 0-.1.1-.2 0-.3 0h-.1c-.1 0-.1-.1-.2-.1.1.1.1.1.2.1-.1 0-.3 0-.4.1l-.1-.1c-.2-.1-.1.1 0 .3-.1 0-.2.1-.2.1-.1-.4-.4.1-.6-.3-.1.2-.8.1-.9.5 0-.1-.1-.1 0-.1-.2 0-.4-.1-.5 0l-.1-.3-.4.4c-.2-.2-.3-.3-.1-.5-.6.3-.5.1-1 .5v-.2c-.2 0-.5.3-.6.1-.4-.4-1.9-.1-2.9-.4.2.5-.5-.2-.5.2-.1-.1-.2-.2 0-.3-.5.1-.8-.2-1.1.2-.1-.1.1-.2.1-.3 0 0-.2.1-.2 0-.1-.1.1-.1.2-.2-.5 0-.6.4-.6.8-.3-.2-.4-.2-.6.1-.1-.1-.2-.2.1-.3-.2 0-1.1-.2-1.1.1-.1-.1-.3 0-.3 0h-.9.1c-.2.4-.3.1-.7.1-.7-.3-.3.1-1.1-.2v.2c-.1.5-.7-.3-1.1-.1l.2.1c-.2.2-.7-.7-.9-.7-.1 0 .1-.1.2-.1-.6-.3-.1.3-.5.4-.1-.2.1-.4-.2-.4-.2-.1-.9.5-1.3.2.1.1.2.2 0 .3-.3 0-.9-.5-1.2-.1l-.1-.1c-.2.1-.8.2-1 .4-.2-.8-1.5.4-1.5-.3h-.8v-.1c-.5 0-.7.1-.8.3-.1 0 0-.1 0-.2-.7-.1-.8-.1-1.4.3l-.1-.2c-.2.1-1-.3-1.7-.1 0 0 0-.1.1-.1-.9.6-2-.3-2.3.6l-.5.2c.7.1-.1.4.2.5-.3.1-.7-.2-.4-.3h.1c.1-.4-.8-.1-.8-.4-1.3 0-2.6-.2-3.9-.2l.1.3h-.4c-.1-.1-.2-.3.1-.3-.2-.2-.5.2-.5.2-.6-.1.2-.4 0-.4h-.3.1c-.2.1-.2.3-.6.3-.2-.1-.1-.2-.2-.2h-.6l.2.3c-.2.1-.5 0-.3.3-.4-.5-2-.1-2.3-.3-.3.2-.7.2-1.1.2.1.1.2.4-.2.3.1-.6-.7-.3-1-.7.3.3-1 .1-.6.5-.3 0 0-.2-.3-.4-.7.3-1.6-.1-2.4 0 0 .1.1.2 0 .3l-.5-.4c-.2 0-.1.5-.5.2 0 .1.1.2 0 .2-1.7-.3-3.5.4-5.3-.3.2.2.1.2-.1.2.1 0 0 .2 0 .3l-.7-.3c-.1.3-.8.1-.8.3l.2-.1c-.3.4.5.8.4 1.2.3-.4.9.6 1.5 0 .1.1-.1.1 0 .3.3.2.5.1.8.2.9 0 1.2.1 2.3.2l-.1-.2c.2 0 .3.1.4.1.2-.3-.6 0-.4-.4.3.4 1.5 0 1.7.5.3 0-.1-.3.2-.3l.1.1.1-.2c.2 0 .3.2.3.3-.1 0-.1 0-.2.1.3.2.8-.1.9 0l-.3-.1c.9-.2 2 0 2.9-.3l-.1-.1c.7-.2.5.1 1.3 0 .1-.1.3-.2.5-.2-.2.1.4.2.1.4.7-.2.4-.2.8-.6l.1.2c.2-.2.2-.2.5-.3-.3.2.2.3-.1.5.8.4 1.1-.4 1.5.1.3-.5-.7-.2-.5-.4-.2-.2.3-.4.5-.3.2 0 .4.6 1.1.6h-.1c.2.1.5-.2.7 0 .2-.3.4 0 .4-.4l-.6.1c.3-.1.6-.5 1.1-.3 0 .1-.2.2-.3.2.2.1.3-.1.5 0 0 .4-.7.1-1 .4.2.2.6-.3.5.1.2-.5.6.1 1-.3v.2c.1 0 .2-.1.3-.1v.4c.3-.3.7.2 1 .1-.7 0-.2-.3-.5-.4.8-.3.5.6 1.4.4-.1 0-.5-.1-.3-.2.2 0 .4.1.5.2.6-.1-.1-.2.2-.4.2.3.3-.1.6-.2v.2c.7.1.2-.5.8-.3l-.3.3.3-.1v.4c.4-.2.5-.1.8-.1-.1-.2 0-.4.4-.4.2.1-.1.2.3.2-.1.1-.2.3-.4.1 0 .1-.1.1-.1.2.2.2.6 0 .7 0h-.2l.6-.3c.1.1 0 .2-.1.2.1 0 .2-.1.4-.2 0 .2 0 .4-.3.5l.6-.2c0 .1.3.2.2.3.3.1.8-.4 1.3-.2 0 0 .1-.1.2-.1.4 0 .8.3 1.3 0l.3.3c.4-.1-.4-.4.3-.5.5-.1.2.3.3.4.2-.2.6-.5 1.1-.2 0-.2-.1-.2-.2-.2"/><path class="st2" d="M35.3 47.6c-.1 0-.3.2-.4.1.1-.3.2-.2.4-.1m7.4-.6c-.1.1-.2 0-.3 0h.3m20.7-1.3c-.2-.1-.1-.1 0 0m.5.1s0-.1 0 0c0 0-.1 0-.2-.1 0 .1.1.1.2.1m-47.2.2c-.1.1 0 0 0 0m25.2 1.3v-.1c-.1.1-.1.1 0 .1m-14.5.7c-.1 0-.1 0 0 0zm29.6-.4c-.1 0-.1-.1-.2-.1.1 0 .1 0 .2.1m9.2-2.1l-.3.1c.1 0 .2 0 .3.1 0-.2-.1-.2 0-.2m2.4 1.4h.1v-.1c-.1 0-.3.1-.1.1m-2.1-.7c0 .2.2.1.4.1 0-.2-.2-.2-.4-.1m.4.1h.2c0-.1-.1 0-.2 0m-2.5-.6c.1.1.1-.2.1-.2.2-.2-.6.3-.1.2m2.2 1.1l-.1-.2-.1.2zm-1.5-.2l.3.1s0-.1.1-.1h-.4m.4 0h.3-.3m.7.3h-.1l-.2-.1zm-4.5-.4l-.3.1c0 .1.1.1.2.1 0-.1.1-.1.1-.2m1 .7c-.1-.1-.1-.1-.1-.2v.3l.1-.1zm-1 0c0 .1-.5.2-.1.2.1 0 .4-.1.1-.2m-5.2-.4h.1v-.5zm-4.5 1c.4.1.1-.3.5-.1.1-.1-.3-.1-.2-.2-.3.1-.4 0-.3.3m.2-.3s.1 0 .1-.1l-.1.1M.7 46.2l-.3-.1.2.2zm-.5.4l-.1-.3-.1.3c.1-.1.2-.1.2 0M36 48.2c0-.2-.1-.2-.2-.2l.2.2zm-3.5-.2l-.1-.2zm-3 .4c.1 0 .3-.1.4 0-.3 0-.4-.3-.4 0"/><path class="st1" d="M73 17.1c.1 0 .1-.3.1-.3-.2 0-.1.3-.1.3m-1.7.8v-.1l-.2.3zm-1.6.4c.3.4.6-.2.9-.1l.1.1v-.4c-.4.1-.8.4-1 .4m-1.3-.7c.1.2-.1.2.2 0h-.1c.1-.1 0-.1-.1 0m.2-.1c.2-.1-.2-.1 0 0m-.8.5l.2-.3c-.1-.1-.3 0-.3-.1-.2.2-.1.3.1.4m0 .4l.1-.1c-.1 0-.1 0-.1.1"/><path class="st1" d="M68 18l-.2.3c.1.1.1.2.1-.1.1.1.1 0 .1-.2m.2 0c.2 0 .4 0 .2.3.2-.1.2-.3.2-.3 0-.1-.2-.1-.4 0m1.5.8l.2.1c0-.1.1-.1.1-.2 0 .1-.3-.1-.3.1m-3.4-.3c0 .1.2.2.3.3l.1-.2c-.1 0-.3 0-.4-.1m.4.3l-.1.3c.1-.1.1-.2.1-.3m1.3.1c.1-.2.1-.4.2-.5-.1.2-.2.4-.2.5zm-2.5.2l-.1-.3v.5zm-.6.5c0-.2-.4-.1-.3-.3-.1.2-.1.4-.1.6 0-.1.2-.2.4-.3m-.5.7V20v.3m1.7-1c-.1 0-.2-.2-.4-.1l.4.1c0 .1 0 .1 0 0m-.1.1c-.1.1-.2.1-.2.1.1 0 .1 0 .2-.1m.1-.1c0 .1.1.1 0 0m1.2-.3c0 .2-.2.5.2.6-.1-.2-.3-.3-.2-.6m-.8.6l.3-.1c0-.1-.2-.1-.1-.2l-.2.3zm-.1.1l.1-.1h-.1zm-1.4.4c0 .2-.1.3-.2.4.2-.1.3-.2.4-.3 0 0-.1-.2-.2-.1m-1.2 1.5s.1.1 0 0zm1.5-1.3c.1 0 .1-.1.1-.3 0 .1-.1.2-.1.3m-1.1.4h.3c-.1-.1-.3-.1-.3 0m1.2-.9c0-.1 0-.1 0 0m0 0v.2c.1 0 .1-.1 0-.2.1 0 0 0 0 0m-.3 3.3c-.2-.2-.3-.6.1-.6 0-.3-.8-.8-1.4-.9.1.1.2.2.1.5.2 0 .6-.3.7.1-.1.4-.2.2-.5.2.4.1.2.6.6.9V23c.3 0 .3.2.4.1"/><path class="st1" d="M64.2 21.3l.1-.1c-.1.1-.3.1-.6.1 0 .2 0 .3.1.4l.2-.2.2-.2zm.4-.5c.2.3.1.6.4.7.2-.2 0-.3 0-.6-.2.4.1-.3-.4-.1.1-.1.1-.2.2-.2-.1 0-.2.1-.3.1 0 0 .1 0 0 0 .1 0 .1 0 .1.1 0-.1 0-.1 0 0-.1 0 0-.1 0 0l-.1-.1-.2.5c.1-.1.2-.2.3-.4m3-.5s-.1 0 0 0c-.1 0-.1 0 0 0m-.3 0c0-.1 0-.2.1-.2s.1.1.1.2c0-.1.1-.3-.2-.3v.1c-.2 0-.7-.1-.7-.2.3.1.5.2.7.4m-1.3.2l-.2.4.3.1-.1-.2c.2-.1.1-.2 0-.3m-2.3 1.1l-.2-.2c.1.2.1.3.2.5v-.3zm-.4.5l-.2-.2.1.2zm15.1 13.5v-.1.1m-.6.4l.1.1c-.1-.1-.1-.2-.1-.1m-14.3-.1c-.1.3-.3.7 0 .5l.2-.2c-.1-.1-.2-.2-.2-.3m8.7 3c-.1 0-.1.1-.2.2.1 0 .1-.1.2-.2m.2-1.2l.2.2c0-.1-.1-.1-.2-.2m8.1-5.2l-.2-.2c-.2.1 0 .1.2.2m-19.1-4.7c-.1.2-.2.3-.2.4.1-.2.4-.3.2-.4m18.7 10.5v-.2c-.1.1-.1.2 0 .2m-19-9.6c.1 0 .1 0 0 0v-.5c-.1.2-.2.4 0 .5m.9-4.5c.1-.2 0-.1 0 0m1.4-.1l.1.1c-.1 0-.1 0-.1-.1m-1.1-.1c-.1 0-.1.1-.2.1 0 0 .1 0 .2-.1m-.2 0s.1-.1 0 0c0-.1 0-.1 0 0"/><path class="st1" d="M62 24.3c0-.1.1-.1.1-.2H62v.2M82.1 26c-.2-.1-.1-.1 0 0m-14.3 9.8zm.4 0c-.3.2-.4.1-.4 0-.1.3-.3.5-.4.8.2-.3.5-.5.8-.8"/><path class="st1" d="M79.5 34.3h-.4c-.2-.5.1-.5-.4-.6.4.3.2.5.1.7-.1.2-.3.3.1.7h-.2V35c-.5-.2.3.7-.1.8-.2 0-.3 0-.3-.2l-.1.4c-.1 0-.2-.1-.1-.1l-.3.3v.6c-.2-.1 0-.1-.1-.2l-.1.3c-.2-.2-.2-.5 0-.5-.4-.3-.4-.3-.4-.1 0 .1 0 .4-.4.2 0-.1.1-.1.1-.2-.4-.4-.4-.2-.8-.4.1.1.3.2.4.4.2.2.3.3.3.5-.1 0-.2 0-.3.2-.1-.3-.2-.2-.4-.1l-.2-.4c-.1.2 0 .4-.1.6-.2 0-.4-.3-.5-.5-.3 0 .4.5 0 .7-.3-.1-.5.1-.7.5-.2-.1 0-.3-.1-.4l-.1.4s-.1-.1-.1-.2c-.1.2.1.4-.2.6 0 .2-.2.1-.3-.1-.2-.2-.4-.3-.5 0-.1-.1 0-.3 0-.5-.4.4-.3.3-.7.8l-.3-.3c.2.3-.1.7-.4 1 .1.2.1.3.2.4-.2.1-.3.2-.5.2 0-.1 0-.2.1-.4l-.1.1c-.1-.2 0-.4.1-.7 0 .1.1.2.1.3.1-.3.2-.6.2-.8 0 .1-.1.1-.1.1 0-.1.1-.1 0-.2 0 0-.1 0-.1.2v-.5.2l-.4-.4c-.1.1-.2.2-.3.4-.1.1-.2.2-.4.3-.3.2-.6.4-.9.4.3-.3.2-.6.4-1 0 .5.5-.1.7.1-.1-.1-.1-.3 0-.3l-.6.3c.1-.3 0-.3-.1-.5-.1.7-.5.3-.8.4.1-.2.2-.4.4-.3 0-.3-.2-.1-.4 0-.2.2-.3.3-.4.1.1 0 .1.1.2 0-.2.1-.5-.2-.3-.3h.1c-.1-.1-.2-.1-.3-.2-.1-.1-.3-.1-.4-.2-.3-.1-.6-.1-.8.2 0-.1.5-.6.5-.6-.6.4-1.2.8-1.9 1.1.4-.4.9-1.5 1.4-1.5 0-.1-.1-.2-.3-.3 0 .1-.4.7-.5.7.2-.6.1-.4.2-.9 0 .1-.6.7-.8.5.1-.1.6-.6.7-.6l-.9.3c.2 0 .5-.4.6-.7-.1.1-.2-.3-.4-.3v.2c-.1-.2-.4-.1-.7 0-.3.1-.6.2-.7-.1.2 0 .9-.5.8-.7-.2.1-.7.2-1.2.3-.5.1-1 .1-1.3 0l.2-.2-.4-.2c.3 0 .8 0 1.4-.1.5 0 1-.1 1.3-.1.1-.2.2-.2.1-.4.1-.2.3-.1.4 0v-.7c-.4.3-.6-.2-.9 0 .2.1.5.2.7.3-.2.1-.5.2-.8.2-.3 0-.6-.1-.6-.4.1-.2.8-.3.9-.4-.2 0-.5-.2-.4-.3.1 0 .2 0 .3.1.1-.3-.7-.1-.4-.5 0-.1.5-.5.2-.4-.5.3-2 .9-2.5.9 0-.1.3-.8.6-.9.4-.3 1 0 1.4-.2h-.4c.1-.1.4-.1.3-.3-.5.1 0-.5-.4 0-.2-.2.1-.3 0-.5-.3.1-1.1-.1-1.3-.3.1 0 .3-.1.3-.1 0-.3.1-.5.1-.6 0-.1 0-.2.1-.3 0-.1 0-.2.1-.3.1 0 .3-.2.5-.1-.1-.1-.2-.1-.2-.3.4-.2 0 .3.6.1-.3 0-.4-.4-.5-.6-.2 0-.3.1-.2.3 0 .1.2.3.3.4-.3 0-.6-.1-.9-.3l-.3-.3c-.1-.1-.2-.3-.2-.4-.1-.4.4-.1.3-.2.1-.2 0-.3 0-.5-.1-.1-.2-.2-.2-.3-.2-.2-.3-.4 0-.7.4-.2.7.2 1 .2.1.4-.4.4-.4.6l.2-.2c.1.1.1.4 0 .5.2-.1.3-.4.4-.7 0-.2.1-.3.2-.5s.2-.3.3-.4c-.1-.1-.1-.4-.3-.3v.2c-.3 0-.3-.5-.5-.3-.1-.3-.3-.7.1-1l.4.1c-.1-.1-.3.1-.3.2-.1-.1.1-.2.3-.3.1-.1.3-.2.1-.4l-.4.1c-.1-.3-.3-.9 0-1.1-.4-.1 0 .1-.6 0 .6.1-.5.8.3.8-.6-.1-.4.3-1 .4.1.1.3 0 .1.2l.1.1c.1 0 .2-.1.3 0 .1.1.1.3.1.5v.4c-.1.1-.1-.1-.3-.1l.2.3c-.3-.1-.7.3-.7-.2l-.1.4c-.2.2-.4.4-.3.7-.1.2.2.5 0 .3v.6h-.1c-.1.3 0 .6 0 .9 0 .3 0 .6-.3.9.1.2.2.4.1.7H61c.1.2-.2.8.1.9-.3.2-.3.5-.2.8.1.3.3.7.3.9l.3-.1c0 .2.1.3.2.4.1.1.2.3.3.4l.3-.1c.2.1.2.3.2.6 0 .2 0 .5.1.7-.1 0-.2-.1-.1-.2-.2.4.1.7.4.9.3.2.6.4.5.7.2.1.2.1.2.3v.1c.1.1.2.2.4.3l-.2.3c0 .2.2 0 .4-.2h.3c-.3.4.4.2.1.7.3-.1.7.4 1.2 0-.1.1 0 .1-.1.1.1.2.2.3.4.3l-.2.4c.2-.1.4-.1.6-.2 0 .3 0 .5-.4.6.7-.1.5.1 1.1 0l-.2.2c.1.1.6-.1.5.1 0 .3.4.6.9.8.5.3 1 .5 1.4.9 0-.4.1-.3.2-.1.1.1.2.3.3 0 0 .2.1.3-.1.5.5-.1.7.5 1.1 0 0 .2-.2.3-.1.4 0 0 .2-.1.2 0s-.1.1-.2.2c.5 0 .7-.5.8-1.1.2.3.3.3.5-.1.1.2.2.4-.1.4.2 0 1 .3 1-.1.1.1.2 0 .3 0 .4 0 .4.1.8 0 0 0-.1 0-.1-.1.1-.6.3-.2.6-.3v.1c.4.1.4.1.5 0 .1 0 .1-.1.5 0l-.1-.3c-.1-.4.1-.3.3-.2.2.1.5.3.6.1l-.2-.1c.1-.2.3 0 .5.3.2.2.5.5.6.5.1 0 0 .1-.1.2.7.2-.1-.4.3-.7.2.2.1.6.4.5.1.1.2-.2.4-.5.2-.2.3-.5.6-.4-.2-.1-.3-.2-.2-.4.1-.1.4-.1.6-.1.2 0 .4-.1.4-.4.1 0 .1 0 .1.1 0-.1.2-.3.3-.5.1-.2.1-.4.1-.5.5.4.7 0 .8-.3.1-.4.2-.7.6-.3l.2-.3.2-.3.1.1c.3-.3.2-.6.1-.9.1 0 .2.1.2.1.3-.2.4-.4.4-.5 0-.2 0-.4-.1-.7l.3.1c-.1-.1.2-.3.4-.5s.4-.6.4-.9l.1.1c-.1-.4.3-.8.5-1.1.1-.1.1-.2.1-.3v-.3c0-.2-.2-.3-.5-.4l-.4-.9c-.2.6-.5-.2-.8.1 0-.2.4-.5.5-.3h-.1c.7.2.3-.7.7-.7 0-.6.1-1.2.1-1.8 0-.6.1-1.2 0-1.7l-.4.3v-.4c.1-.1.4-.2.4.1.3-.2-.3-.4-.4-.4.1-.6.6.1.6-.1l-.2-.2v.1c-.2-.1-.5-.1-.5-.4 0-.2.3-.2.3-.3v-.1l-.2-.6-.3.3c-.3-.1-.1-.4-.5-.1.3-.3.2-.7 0-1.1-.2-.4-.4-.8-.3-.9-.4-.1-.5-.4-.7-.8 0 .1-.4.4-.5.1.9-.4.1-.7.5-1.3-.3.4-.6-.7-.9 0-.1-.3.3-.2.3-.5-.3-.2-.5-.5-.7-.8-.2-.3-.4-.7-.7-1-.1.1-.1.3-.4.3 0-.2.1-.5.1-.7-.2-.1-.6.4-.5-.1 0 .1-.1.3-.2.2-.4-.7-1.2-1.1-1.9-1.5-.8-.3-1.5-.6-2.2-1.4.2.3 0 .3-.2.2.1.1-.1.3-.1.5l-.6-.6c-.1.2-.3.2-.5.2s-.4 0-.4.2l.2-.1c-.2.3-.1.5 0 .9.1.3.2.7.1 1 .2-.3.3 0 .5.2s.3.4.6.1c0 .2-.1.2-.1.4.2-.3.3-.3.5-.1v.1c.6.2.8.5 1.3 1.1l.1-.3c.1.1.1.2.1.3.4-.3-.4-.3.1-.6 0 .2 0 .3.1.4l.3.3c.2.2.4.4.2.7.2.2.2-.3.4-.2l-.1.2.2-.2c.1.1 0 .4-.1.5 0 0-.1 0-.2-.1 0 .3.5.3.5.4 0-.1 0-.2-.1-.3.3.2.5.4.8.7.2.3.5.5.9.7l.1-.1c.5.3.1.4.5.8.2 0 .3.1.4.3-.2 0-.2.4-.5.3.5.3.3.1 1 .2l-.1.3c.3 0 .4 0 .6.2-.3-.1-.3.3-.7.2-.1.4.1.5.2.7.2.1.3.2-.1.5.8 0 .2-.6.4-.5.2-.2.6 0 .6.2s-.8.6-.6 1.1c0 0-.1 0-.1-.1-.1.2.3.3.1.6.5 0 0 .3.6.2-.1-.1-.1-.3-.2-.4.2.2.9.3.7.8-.1 0-.3-.1-.4-.2-.1.2.2.2 0 .4-.6.1-.2-.5-.7-.7-.2.2.5.4-.1.4.8 0 0 .5.6.7h-.3c.1 0 .2.1.2.2l-.5-.1c.4.2-.3.5 0 .7-.1-.5.4-.2.6-.4.5.6-.8.5-.6 1.1-.1-.1.2-.4.3-.2-.1.1-.2.3-.4.4.1.5.3-.1.6.1-.4.2.2.2.3.4h-.3c-.2.5.7.2.4.6-.2-.1-.3-.2-.5-.2l.1.2-.4-.1c.3.3.2.4 0 .6.2 0 .6.1.6.4-.2.1-.3-.1-.3.2-.2-.1-.4-.2-.1-.3-.1 0-.2-.1-.3-.1-.1.1-.1.2-.2.2v.2l.1-.1.3.6c-.1 0-.2 0-.3-.1 0 .1.1.2.1.3-.3-.1-.5-.2-.6-.4l.1.2.1.2c-.1 0-.4.1-.5 0-.1.1 0 .2 0 .4.1.2.1.4-.1.5 0 0 .1.1.1.2-.2.3-.6.3-.5.8-.2 0-.3-.1-.5-.1-.1.3.7.1.6.6-.1.4-.4-.2-.6-.1.1.1.1.3.1.5s-.1.3-.3.3c.2-.2.3-.2.3-.3M77 36.6c0-.1 0-.3.2-.2.1.4-.1.3-.2.2m-5.3 1.6c.1-.1.1 0 .2.1 0 0-.1 0-.2-.1m-9.9-12.6c-.1.1-.1.1 0 0m.3-.4c0-.1-.1-.1-.1-.1.1.1 0 .1 0 .2.1.1.1.1.1-.1m21.9-.9c-.2 0-.1 0 0 0"/><path class="st1" d="M72.4 37.8v.2s.1-.1 0-.2m8.1-5.3zM64.6 31c0 .1-.1.1-.1.2.1-.1.1-.1.1-.2m-2.1-8.1c0 .1 0 .2-.1.3 0-.1.1-.1.2-.2 0 0-.1 0-.1-.1m3-.6v-.1l-.1-.1c-.1.1 0 .2.1.2m-1.9.9c.3.1.3-.1.3-.2-.3-.2-.3 0-.3.2m.3-.2c0-.1 0-.1.1-.1-.1-.2-.1 0-.1.1m-1.8 1.6c.1-.1-.3-.2-.2-.2-.3-.2.2.8.2.2m2.4-1l-.3-.1.1.2zm-.9 1.1l.2-.2c-.1 0-.1-.1-.1-.1 0 .1-.2.2-.1.3m.2-.4c0-.1.1-.2 0-.2v.2m.6-.3h-.1l-.1.1s.1-.1.2-.1m-1.6 3.4l.1.3c.1 0 .2 0 .2-.1-.2-.1-.2-.2-.3-.2m1.1-.6c-.1.1-.2 0-.3.1l.4.1-.1-.2zm-.1.7c.1 0 .3.4.3.1-.1 0-.1-.3-.3-.1m-.2 4.2l-.1-.1-.6.2zm3 2.2c0-.3-.4.2-.4-.1-.2 0 0 .3-.2.3.3.1.3.2.6-.2m-.5.2H66h.1m7.8-20c-.1-.1-.2-.1-.3-.2l.2.2h.1zm-.6.5l-.1-.5-.2.4c.2.1.3 0 .3.1M76.1 36v.1c.1.1.1.1.2.1l-.2-.2zm2.2-.9h-.1l.4.3zm.9-1.8c-.1.1 0 .2-.1.2 0-.1.5.1.1-.2M.2 58.8v-.9l2.5-3.3H.2v-1h3.9v.9l-2.4 3.3h2.5v1zm6.2 0v-5.2H10v1H7.5v1.1H10v.9H7.5v1.2H10v1zm8.8 0l-1-1.8h-.8v1.8h-1.1v-5.2h2.4c1.1 0 1.8.7 1.8 1.7 0 .9-.6 1.4-1.1 1.5l1.2 2h-1.4zm.1-3.5c0-.4-.3-.7-.8-.7h-1.2V56h1.2c.5 0 .8-.3.8-.7m3.1.9c0-1.6 1.1-2.7 2.7-2.7s2.7 1.1 2.7 2.7-1.1 2.7-2.7 2.7-2.7-1.1-2.7-2.7m4.3 0c0-1-.6-1.7-1.6-1.7s-1.6.7-1.6 1.7.6 1.7 1.6 1.7 1.6-.7 1.6-1.7m7.8 2.6v-4.2H29v-1h4.2v1h-1.6v4.2zm4.3-2.6c0-1.6 1.1-2.7 2.7-2.7s2.7 1.1 2.7 2.7-1.1 2.7-2.7 2.7-2.7-1.1-2.7-2.7m4.3 0c0-1-.6-1.7-1.6-1.7s-1.6.7-1.6 1.7.6 1.7 1.6 1.7 1.6-.7 1.6-1.7m3.2 2.6v-5.2h1.1v4.2h2.2v1zm5.4 0v-5.2h3.7v1h-2.5v1.1h2.5v.9h-2.5v1.2h2.5v1zm8.9 0l-1-1.8h-.8v1.8h-1.1v-5.2h2.4c1.1 0 1.8.7 1.8 1.7 0 .9-.6 1.4-1.1 1.5l1.2 2h-1.4zm.1-3.5c0-.4-.3-.7-.8-.7h-1.2V56h1.2c.5 0 .8-.3.8-.7m6.9 3.5l-.3-.9h-2.2l-.3.9h-1.3l2-5.2h1.4l2 5.2h-1.3zm-1.4-4.1l-.8 2.2H63l-.8-2.2zm8.1 4.1l-2.5-3.4v3.4h-1.1v-5.2h1.2l2.4 3.3v-3.3h1.1v5.2zm3.2-2.6c0-1.6 1.2-2.7 2.8-2.7 1.1 0 1.8.6 2.2 1.3l-1 .5c-.2-.4-.7-.8-1.2-.8-.9 0-1.6.7-1.6 1.7s.7 1.7 1.6 1.7c.5 0 1-.3 1.2-.8l1 .5c-.4.6-1 1.3-2.2 1.3-1.6 0-2.8-1.1-2.8-2.7m7 2.6v-5.2h3.7v1h-2.6v1.1h2.5v.9h-2.5v1.2h2.6v1z"/></svg>