<?xml version="1.0" encoding="utf-8"?>
<!-- Generator: Adobe Illustrator 22.1.0, SVG Export Plug-In . SVG Version: 6.00 Build 0)  -->
<svg version="1.1" id="Layer_1" xmlns="http://www.w3.org/2000/svg" xmlns:xlink="http://www.w3.org/1999/xlink" x="0px" y="0px"
	 viewBox="0 0 83.1 50.5" style="enable-background:new 0 0 83.1 50.5;" xml:space="preserve">
<style type="text/css">
	.st0{clip-path:url(#SVGID_2_);fill:#242058;}
	.st1{clip-path:url(#SVGID_2_);fill:#30BCB0;}
	.st2{clip-path:url(#SVGID_2_);fill:#EEAF12;}
</style>
<g>
	<defs>
		<rect id="SVGID_1_" y="0" width="83.1" height="50.5"/>
	</defs>
	<clipPath id="SVGID_2_">
		<use xlink:href="#SVGID_1_"  style="overflow:visible;"/>
	</clipPath>
	<path class="st0" d="M1.9,45.4h2.5c1.7,0,2.7-0.7,2.7-2.2c0-1.5-1-2.2-2.7-2.2H1.9V45.4z M4.4,39.3c2.8,0,4.4,1.4,4.4,3.8
		c0,2.5-1.6,4-4.4,4H1.9v3.4H0V39.3H4.4z"/>
	<path class="st0" d="M14.9,45.4c1.7,0,2.7-0.7,2.7-2.2c0-1.5-1-2.2-2.7-2.2h-2.6v4.4H14.9z M15.4,47.1c-0.2,0-0.3,0-0.5,0h-2.6v3.4
		h-1.9V39.3h4.5c2.8,0,4.5,1.4,4.5,3.8c0,1.8-0.8,3-2.3,3.6l2.5,3.7h-2.1L15.4,47.1z"/>
	<polygon class="st0" points="23.4,41 23.4,44 28.9,44 28.9,45.7 23.4,45.7 23.4,48.8 29.7,48.8 29.7,50.5 21.5,50.5 21.5,39.3 
		29.5,39.3 29.5,41 	"/>
	<path class="st0" d="M40.8,41l-1.1,1.4c-0.8-0.9-2-1.4-3.1-1.4c-2.2,0-4,1.7-4,3.9c0,2.2,1.7,3.9,4,3.9c1.1,0,2.3-0.5,3.1-1.3
		l1.1,1.2c-1.1,1.1-2.7,1.8-4.3,1.8c-3.3,0-5.8-2.5-5.8-5.7c0-3.2,2.6-5.6,5.9-5.6C38.2,39.3,39.7,39.9,40.8,41"/>
	<rect x="42.4" y="39.3" class="st0" width="1.9" height="11.1"/>
	<path class="st0" d="M54.4,40.4L53.7,42c-1.2-0.7-2.4-1-3.3-1c-1.1,0-1.8,0.4-1.8,1.2c0,2.4,6,1.1,6,5.1c0,2-1.7,3.2-4.2,3.2
		c-1.7,0-3.4-0.7-4.5-1.8l0.8-1.6c1.1,1,2.6,1.6,3.8,1.6c1.3,0,2.1-0.5,2.1-1.4c0-2.5-6-1.1-6-5.1c0-1.9,1.6-3.1,4.1-3.1
		C52,39.3,53.4,39.7,54.4,40.4"/>
	<rect x="56.5" y="39.3" class="st0" width="1.9" height="11.1"/>
	<path class="st0" d="M61.9,44.9c0,2.2,1.8,4,4,4c2.2,0,4-1.7,4-4s-1.8-3.9-4-3.9C63.7,41,61.9,42.7,61.9,44.9 M71.8,44.9
		c0,3.2-2.6,5.6-5.9,5.6c-3.3,0-5.9-2.5-5.9-5.6c0-3.2,2.6-5.6,5.9-5.6C69.2,39.3,71.8,41.7,71.8,44.9"/>
	<polygon class="st0" points="81.3,50.5 75.4,42.5 75.4,50.5 73.5,50.5 73.5,39.3 75.3,39.3 81.3,47.3 81.3,39.3 83.1,39.3 
		83.1,50.5 	"/>
	<path class="st1" d="M52.1,19.2c0-5.1-3.8-9.4-8.8-10.1c-0.1,0.9-0.1,1.5-0.1,1.5c-0.1,2.6-0.1,5.2-0.2,7.8c0,0.5,0,0.9,0.1,1.4
		c0.3,2.4,1.5,4.4,3.2,6.2c0.5,0.5,1,1,1.5,1.4C50.4,25.6,52.1,22.6,52.1,19.2 M57.6,8c-1.6-2.2-3.1-4.2-5.2-5.9
		c-0.9-0.7-1.8-1.4-2.9-1.8c-1.9-0.7-3.5-0.2-4.4,1.6c-0.3,0.5-0.5,1-0.7,1.5c7.6,1.3,13.4,7.9,13.4,15.8c0,4.5-1.9,8.5-4.9,11.4
		c1.6,0.6,3.2,1.1,4.9,0.9c0.9-0.1,1.6-0.5,2.3-1.2c1-1,1.3-3.5,1.3-6.7C61.6,18.7,60.6,12.2,57.6,8 M44,4.8c-0.1,0.5-0.2,1-0.3,1.5
		c-0.1,0.4-0.2,0.7-0.2,1.1c5.7,0.8,10.2,5.8,10.2,11.7c0,3.8-1.8,7.1-4.5,9.3c0.8,0.6,1.6,1,2.4,1.5c3-2.7,4.8-6.5,4.8-10.7
		C56.3,12,51,6,44,4.8"/>
	<path class="st2" d="M39.9,10.5c0,0,0-0.7,0-1.5c-5,0.8-8.8,5-8.8,10.1c0,3.4,1.7,6.4,4.2,8.3c0.5-0.5,1-0.9,1.5-1.4
		c1.6-1.8,2.9-3.8,3.2-6.2c0.1-0.5,0.1-0.9,0.1-1.4C40,15.8,40,13.2,39.9,10.5 M38.6,3.4c-0.2-0.5-0.4-1-0.7-1.5
		c-0.9-1.8-2.6-2.3-4.4-1.6c-1.1,0.4-2,1.1-2.9,1.8c-2.1,1.8-3.6,3.7-5.2,5.9c-3,4.2-3.9,10.7-3.9,15.6c0,3.2,0.3,5.8,1.3,6.7
		c0.7,0.7,1.4,1.1,2.3,1.2c1.7,0.2,3.3-0.3,4.9-0.9c-3-2.9-4.9-7-4.9-11.4C25.3,11.3,31,4.7,38.6,3.4 M29.5,19.2
		c0-5.9,4.4-10.8,10.2-11.7c-0.1-0.4-0.1-0.8-0.2-1.1c-0.1-0.5-0.2-1-0.3-1.5C32.2,6,26.8,12,26.8,19.2c0,4.3,1.9,8.1,4.8,10.7
		c0.9-0.4,1.7-0.9,2.4-1.5C31.3,26.3,29.5,22.9,29.5,19.2"/>
</g>
</svg>
